<?xml version="1.0" encoding="UTF-8"?>
<svg version="1.1" xmlns="http://www.w3.org/2000/svg" width="892" height="619">
<path d="M0 0 C294.36 0 588.72 0 892 0 C892 204.27 892 408.54 892 619 C597.64 619 303.28 619 0 619 C0 414.73 0 210.46 0 0 Z " fill="#FEFEFE" transform="translate(0,0)"/>
<path d="M0 0 C2.38621343 3.57932015 2.49413449 5.87505123 2 10 C1.12713437 14.03637285 0.09807233 18.01948779 -1 22 C-2.58246707 22.08153933 -4.16616273 22.13943557 -5.75 22.1875 C-7.07257813 22.23970703 -7.07257813 22.23970703 -8.421875 22.29296875 C-11.44671583 21.94923684 -12.75583602 20.99772541 -15 19 C-13.63676257 21.0399719 -13.63676257 21.0399719 -12 23 C-10.01984674 23 -8.040412 22.90668629 -6.0625 22.8125 C-2.27747748 22.79189189 -2.27747748 22.79189189 0 24.5 C0.33 24.995 0.66 25.49 1 26 C-0.11375 26.556875 -0.11375 26.556875 -1.25 27.125 C-4.18142211 28.85960098 -4.18142211 28.85960098 -5.875 31.9375 C-8.53579391 35.77217358 -10.87007826 36.93503913 -15 39 C-15 39.99 -15 40.98 -15 42 C-14.01 41.505 -13.02 41.01 -12 40.5 C-7.72521304 38.69508995 -4.63097151 38.48544761 0 39 C3.10352458 40.60923497 5.21701424 42.00347267 7.375 44.75 C8.33724153 48.21406951 8.71774001 51.48098344 8 55 C5.5 58 5.5 58 3 60 C2.896875 58.741875 2.79375 57.48375 2.6875 56.1875 C2.36513242 53.78670988 2.10751218 52.19605161 0.9375 50.0625 C-2.20025822 48.34179388 -5.47616244 47.97257714 -9 48 C-11.89765372 48.8043195 -11.89765372 48.8043195 -14 50 C-14 50.66 -14 51.32 -14 52 C-12.906875 52.2475 -11.81375 52.495 -10.6875 52.75 C-7 54 -7 54 -5 55.75 C-3.64276014 58.80378969 -4.20453749 60.81814995 -5 64 C-5.680625 63.175 -6.36125 62.35 -7.0625 61.5 C-9.79453808 58.80347246 -9.79453808 58.80347246 -13.1875 58.1875 C-19.0973699 59.44698047 -22.94336111 62.59388715 -27 67 C-29.08064967 70.54360647 -30.64638754 74.12439379 -32 78 C-31.38769531 77.36707031 -30.77539062 76.73414062 -30.14453125 76.08203125 C-27.74342239 73.75090006 -26.23627104 72.82788329 -23 72 C-18.6498105 72.07768196 -16.6081868 72.51345056 -13.1875 75.25 C-9.91239232 79.36727822 -8.76559865 82.07422528 -9.125 87.3125 C-9.77467994 91.9854991 -11.35292949 96.08433343 -14 100 C-14.99 100.495 -14.99 100.495 -16 101 C-15.97679687 100.27554688 -15.95359375 99.55109375 -15.9296875 98.8046875 C-15.82981206 93.45421756 -15.83544252 89.00553918 -18 84 C-23.37452297 83.48867735 -23.37452297 83.48867735 -28.1875 85.375 C-30.3478823 88.50382954 -31.81483673 91.75973964 -33.265625 95.26953125 C-34.99153093 97.98666693 -36.41679466 99.20056879 -38.9140625 101.15625 C-43.79738301 105.28114231 -45.33496174 109.67245589 -47.125 115.6875 C-47.45137451 116.72696777 -47.77774902 117.76643555 -48.11401367 118.83740234 C-54.07570648 138.47472033 -57.63204299 158.64387832 -60 179 C-52.66238529 169.19057497 -45.4210212 159.43845158 -39 149 C-37.88308169 147.2863719 -36.75840524 145.57776843 -35.625 143.875 C-35.14289063 143.15054688 -34.66078125 142.42609375 -34.1640625 141.6796875 C-33 140 -33 140 -32 139 C-31.63604023 135.14202645 -31.43992465 132.84011302 -33.625 129.5625 C-36.68110493 127.55190465 -38.40025513 127.55003189 -42 128 C-44.30230766 128.89831016 -44.30230766 128.89831016 -46 130 C-44.63724795 124.85182557 -41.50559466 121.64879686 -37 119 C-32.9481496 117.97936344 -29.85018397 118.55642575 -26.125 120.5 C-23.23623047 123.89855238 -22.80009493 126.63584584 -22 131 C-21.29875 130.28714844 -20.5975 129.57429687 -19.875 128.83984375 C-18.91727788 127.87179076 -17.95889837 126.90438788 -17 125.9375 C-16.50105225 125.43379883 -16.00210449 124.93009766 -15.48803711 124.41113281 C-12.6189908 121.53978722 -9.69479654 118.83754932 -6.5625 116.25 C-2.97241913 113.19586167 -1.10240247 110.20480494 1 106 C1.99 104.515 1.99 104.515 3 103 C3.71285156 103.23332031 4.42570313 103.46664062 5.16015625 103.70703125 C9.98596012 104.20487897 12.6490643 101.29317163 16.3359375 98.4609375 C20.26794894 94.82872752 22.74363975 90.81933391 25 86 C25.37769531 85.21625 25.75539063 84.4325 26.14453125 83.625 C27.20565501 80.36894901 27.19402885 77.60442826 27.125 74.1875 C27.10695313 73.02605469 27.08890625 71.86460938 27.0703125 70.66796875 C27.04710937 69.78753906 27.02390625 68.90710938 27 68 C30.26046559 68.73948704 32.0252021 69.17886014 34 72 C34.95710633 76.3069785 35.16279782 79.73640798 34 84 C34.49628906 83.72285156 34.99257813 83.44570312 35.50390625 83.16015625 C39.99912102 80.76327703 43.81065329 79.19959026 49 79 C51.4375 79.9375 51.4375 79.9375 53 81 C52.43551235 86.92712035 50.35596464 90.92120767 45.875 94.875 C44 96 44 96 42 96 C42 96.66 42 97.32 42 98 C41.01 98 40.02 98 39 98 C39.66 98.66 40.32 99.32 41 100 C40.67 100.99 40.34 101.98 40 103 C39.401875 102.79375 38.80375 102.5875 38.1875 102.375 C35.71549154 101.69328085 35.71549154 101.69328085 33 104 C33.33 104.66 33.66 105.32 34 106 C34.41121825 110.62620533 33.85503289 113.29903144 31 117 C30.01 117.33 29.02 117.66 28 118 C28.37125 116.14375 28.37125 116.14375 28.75 114.25 C29.13964691 111.06506005 29.20107235 110.32171577 27.4375 107.5 C24.3129106 105.57717575 22.63321027 105.64739114 19 106 C11.58555133 109.97241264 1.83653355 117.3269329 -2 125 C-2.66 125 -3.32 125 -4 125 C-3.938125 126.258125 -3.87625 127.51625 -3.8125 128.8125 C-3.79173989 132.72231986 -3.79173989 132.72231986 -5.5 135 C-5.995 135.33 -6.49 135.66 -7 136 C-6.01 137.32 -5.02 138.64 -4 140 C-4 139.67 -4 139.34 -4 139 C-3.86393722 137.33250725 -3.7163163 135.66594888 -3.5625 134 C-3.44068359 132.63875 -3.44068359 132.63875 -3.31640625 131.25 C-3 129 -3 129 -2 128 C6.04170815 127.17029995 13.24878971 128.49919314 20 133 C19.71349017 136.43811794 19.26566773 137.74171193 16.75 140.1875 C10.99595022 143.9799419 5.75442201 144.50161546 -1 145 C-1.99 147.97 -1.99 147.97 -3 151 C-3.66 149.68 -4.32 148.36 -5 147 C-11.83327864 146.19957257 -17.18006116 147.04319584 -23.12890625 150.5703125 C-29.41203015 155.88745953 -33.58446639 163.132511 -38 170 C-39.24738711 171.85592549 -40.49669879 173.71056315 -41.75 175.5625 C-42.50264077 176.70660048 -43.25400265 177.85155671 -44 179 C-43.01 178.505 -42.02 178.01 -41 177.5 C-36.86522766 175.69896419 -33.46801547 175.76484129 -29 176 C-31.54345544 177.69563696 -34.10541327 179.22238158 -36.75 180.75 C-47.90349066 187.50037098 -55.01616342 195.914166 -58.58984375 208.7109375 C-59.03296847 211.18399545 -59.07530749 213.49270345 -59 216 C-58.31292969 215.6390625 -57.62585938 215.278125 -56.91796875 214.90625 C-56.01691406 214.4421875 -55.11585938 213.978125 -54.1875 213.5 C-53.29417969 213.0359375 -52.40085937 212.571875 -51.48046875 212.09375 C-49 211 -49 211 -46 211 C-45.42512809 219.00127846 -50.00816165 224.40381031 -54.953125 230.34765625 C-56.12382649 231.6634657 -57.31064224 232.96528 -58.51953125 234.24609375 C-61.71611435 238.03307479 -62.26948865 241.16261413 -62.4140625 246.078125 C-62.45273437 247.23828125 -62.49140625 248.3984375 -62.53125 249.59375 C-62.5621875 250.8003125 -62.593125 252.006875 -62.625 253.25 C-62.66367187 254.47203125 -62.70234375 255.6940625 -62.7421875 256.953125 C-62.83642108 259.9685994 -62.92203455 262.98406828 -63 266 C-62.07348633 266.06654785 -61.14697266 266.1330957 -60.19238281 266.20166016 C-54.42358641 266.61965125 -48.71001916 267.070462 -43 268 C-43.02320313 267.35675781 -43.04640625 266.71351563 -43.0703125 266.05078125 C-43.59951732 239.55274006 -33.40291147 213.72079042 -15.31640625 194.41015625 C-14.55199219 193.61480469 -13.78757812 192.81945312 -13 192 C-12.26652344 191.21496094 -11.53304687 190.42992187 -10.77734375 189.62109375 C8.04676644 170.00019583 34.42475296 159.37932097 61.32592773 158.54711914 C74.5163432 158.36222916 86.43038125 160.05466856 99 164 C100.20785156 164.37253906 101.41570312 164.74507812 102.66015625 165.12890625 C129.43066839 174.46443114 150.3397666 195.4639217 162.9375 220.375 C167.55792963 230.0486864 169.89491295 239.49992726 172 250 C172.19207031 250.81339844 172.38414062 251.62679687 172.58203125 252.46484375 C173.1273488 255.77242401 173.0938078 258.962565 173.0625 262.3125 C173.05347656 263.56675781 173.04445313 264.82101562 173.03515625 266.11328125 C173.01775391 267.54220703 173.01775391 267.54220703 173 269 C173.95261719 268.855625 174.90523437 268.71125 175.88671875 268.5625 C177.14097656 268.376875 178.39523437 268.19125 179.6875 268 C180.92886719 267.814375 182.17023438 267.62875 183.44921875 267.4375 C186.36787188 267.07788597 189.07134874 266.9648474 192 267 C192.98285212 255.30206237 193.59712358 243.61087719 193.875 231.875 C193.89550415 231.01305275 193.9160083 230.1511055 193.93713379 229.26303864 C194.70068966 202.41171821 194.70068966 202.41171821 182.5078125 179.4375 C177.59991185 174.34137586 172.29827277 170.02075862 166.55419922 165.90576172 C153.63027932 156.53352437 153.63027932 156.53352437 152.28686523 151.13342285 C151.92984787 146.78068746 152.04717692 142.52344321 152.23547363 138.16452026 C152.45112425 130.70006828 151.6471858 126.31333964 146.59375 120.6875 C144.89144917 118.92730008 143.15230667 117.26082306 141.32275391 115.63330078 C139.47818003 113.98044795 137.76726827 112.24200287 136.04296875 110.46484375 C128.94859622 103.52223842 123.31281201 100.77473134 113.30773926 100.74267578 C111.53700519 100.78840404 109.76778643 100.88810116 108 101 C107.82210937 102.14082031 107.82210937 102.14082031 107.640625 103.3046875 C106.51296909 108.04909347 103.33676689 111.05448196 99.4375 113.8125 C93.45984073 116.72469298 87.57190983 116.87183384 81.3125 114.75 C74.94228189 111.38460175 71.21868869 107.90522363 69 101 C68.07861537 95.13664326 68.65595521 90.02019453 71.5859375 84.82421875 C74.57805529 80.9642215 78.65686766 78.17156617 83 76 C90.89491684 75.24947774 96.96198968 76.47951122 103.3125 81.4375 C105.64603358 83.66249714 106.99693597 84.99080792 108 88 C108 88.99 108 89.98 108 91 C109.30420898 90.82090088 110.60841797 90.64180176 111.95214844 90.45727539 C121.25993956 89.57319004 128.61220489 89.6623659 136.20838928 95.57945251 C140.10097823 99.01147493 143.69942443 102.65585781 147.25 106.4375 C148.00991241 107.21118927 148.76982483 107.98487854 149.55276489 108.78201294 C163.74353105 123.32962325 163.74353105 123.32962325 164.44921875 131.875 C164.33230335 134.94094291 163.95103643 137.85130448 163.4753418 140.88037109 C162.95234871 146.10857444 163.34394749 149.47622554 166.54785156 153.68457031 C173.82298065 162.27357629 182.42093661 169.74772742 191 177 C193.65899339 159.58538238 193.65899339 159.58538238 189.13525391 143.35986328 C186.68697173 141.14807152 184.17265721 139.18403897 181.5 137.25 C176.86682813 133.81681042 172.81176075 130.50202203 171.45611572 124.65362549 C169.65066731 111.27820249 170.8920915 97.39627344 172 84 C171.34 84 170.68 84 170 84 C168.375 82.625 168.375 82.625 167 81 C167 80.34 167 79.68 167 79 C166.360625 78.731875 165.72125 78.46375 165.0625 78.1875 C163 77 163 77 162 74 C161.34 74 160.68 74 160 74 C160 73.34 160 72.68 160 72 C159.01 71.67 158.02 71.34 157 71 C154.8125 69.0625 154.8125 69.0625 153 67 C153 66.34 153 65.68 153 65 C152.34 65 151.68 65 151 65 C149.375 63.625 149.375 63.625 148 62 C148 61.34 148 60.68 148 60 C147.030625 60.495 146.06125 60.99 145.0625 61.5 C139.983988 63.63993751 135.10723535 63.98739795 129.82421875 62.30859375 C123.71325932 59.55808659 120.67702272 55.51553408 117 50 C116.35579461 43.96993789 116.06734673 38.08914334 118.5625 32.5 C124.18028108 26.73817325 127.99190742 22.92734833 136.3125 22.75 C142.16811083 22.83653612 146.29596738 24.52833546 150.75 28.375 C155.24988435 33.62486507 157.21349009 38.04632279 157 45 C156.70746338 45.63373535 156.41492676 46.2674707 156.11352539 46.92041016 C155.01817317 49.58634991 154.6002402 51.12330264 155 54 C156.78360989 55.95214452 158.39610729 57.44557149 160.45703125 59.0546875 C161.31976906 59.73324295 161.31976906 59.73324295 162.19993591 60.42550659 C162.79959671 60.89594391 163.39925751 61.36638123 164.01708984 61.85107422 C180.59492901 74.87962502 180.59492901 74.87962502 182.01611328 85.08984375 C182.57969623 93.3228331 182.08812196 101.44684953 180.85383606 109.59616089 C180.81699203 110.57247467 180.78014801 111.54878845 180.7421875 112.5546875 C180.70978722 113.32838621 180.67738693 114.10208492 180.64400482 114.89922905 C180.76527625 119.14767496 181.1099802 121.97201608 183.94913578 125.25127602 C185.65230772 126.71350294 187.3795154 128.14805207 189.12579727 129.55851364 C195.99813673 135.11953313 202.0687664 140.56544768 203.7828064 149.52157593 C204.54836191 156.97440462 204.2573643 164.38759408 203.953125 171.859375 C203.90444512 174.58836969 203.88632098 177.31735018 203.86737061 180.04669189 C203.8058081 186.44197828 203.6426025 192.8302224 203.44038081 199.22244 C203.21486732 206.51317474 203.10639345 213.80429195 203.00647211 221.09765959 C202.79880112 236.06909727 202.44415251 251.03357122 202 266 C205.96 266 209.92 266 214 266 C214 211.88 214 157.76 214 102 C212.02 101.34 210.04 100.68 208 100 C203.6852363 97.22622334 200.61142471 93.90248259 199 89 C198.01007002 82.44277149 198.01474289 76.69190496 201.5625 70.9375 C205.45394028 66.03716779 208.84673729 63.41935975 215.0546875 62.59375 C222.36376134 62.25614844 227.48872098 63.04665293 233 68 C236.84524504 71.9464357 238.90134342 75.73885202 239.0703125 81.32421875 C238.74430478 87.58548476 237.12626797 92.23553592 233 97 C229.9747632 99.3596847 227.62370313 100.79209896 224 102 C224 129.72 224 157.44 224 186 C231.7034375 178.4821875 231.7034375 178.4821875 239.5625 170.8125 C241.19002197 169.23960205 242.81754395 167.6667041 244.49438477 166.04614258 C245.76957656 164.78847214 247.04366103 163.52967753 248.31640625 162.26953125 C248.99086792 161.62576538 249.66532959 160.98199951 250.36022949 160.31872559 C252.07448193 158.60644771 253.63788644 157.00340951 255 155 C255.12404324 152.22470857 255.12404324 152.22470857 254 150 C252.56962643 142.61584926 252.94276749 137.46341456 257 131 C260.56824959 126.79129536 264.30087507 123.37053936 269.90234375 122.6015625 C280.54376981 122.68373567 280.54376981 122.68373567 285 126 C289.968235 131.06138941 293.13841121 134.38657151 293.3125 141.625 C293.24233159 148.13506939 292.02308792 152.67969838 287.609375 157.52734375 C282.64066119 162.03841287 277.65345474 163.35614924 271.03515625 163.203125 C267.85582462 162.88580207 265.02734991 162.00911664 262 161 C262 161.66 262 162.32 262 163 C259.625 165.625 259.625 165.625 257 168 C256.34 168 255.68 168 255 168 C255 168.66 255 169.32 255 170 C253.625 171.625 253.625 171.625 252 173 C251.34 173 250.68 173 250 173 C250 173.66 250 174.32 250 175 C247.625 177.625 247.625 177.625 245 180 C244.34 180 243.68 180 243 180 C243 180.66 243 181.32 243 182 C241.625 183.625 241.625 183.625 240 185 C239.34 185 238.68 185 238 185 C238 185.66 238 186.32 238 187 C235.625 189.625 235.625 189.625 233 192 C232.34 192 231.68 192 231 192 C231 192.66 231 193.32 231 194 C229.625 195.625 229.625 195.625 228 197 C227.34 197 226.68 197 226 197 C226 197.66 226 198.32 226 199 C225.34 199.33 224.68 199.66 224 200 C223.67 221.45 223.34 242.9 223 265 C235.77255081 264.9214805 235.77255081 264.9214805 248.54492188 264.81982422 C259.06581116 264.76352918 269.66398606 264.79029071 280 267 C280.66 267.66 281.32 268.32 282 269 C276.6132422 304.31318999 253.55465591 338.01412638 230.0234375 363.75390625 C228.42588072 365.52725596 226.91616508 367.31683982 225.4375 369.1875 C222.88097236 372.13733958 220.16990516 374.58505274 217.19921875 377.10546875 C215.73517729 378.36667676 214.29946368 379.66154543 212.89453125 380.98828125 C177.56398945 414.25128704 129.56372847 432.42382877 82 438 C81.20166748 438.09643799 80.40333496 438.19287598 79.58081055 438.29223633 C22.05092687 444.71494826 -38.00769595 425.86570892 -83.1862793 390.23901367 C-117.76770319 362.34859116 -144.11558036 327.13949418 -159.125 285.125 C-159.40843262 284.33536865 -159.69186523 283.5457373 -159.98388672 282.73217773 C-161.69083643 277.68832982 -163.22633921 272.37377691 -163 267 C-158.96731325 262.96731325 -151.75598057 263.74878541 -146.25 263.4375 C-145.50572754 263.3950415 -144.76145508 263.35258301 -143.99462891 263.30883789 C-132.34255075 262.72938193 -120.66232529 262.9156033 -109 263 C-108.96429481 259.18587266 -109.00684031 255.376302 -109.0625 251.5625 C-109.04606445 249.95858398 -109.04606445 249.95858398 -109.02929688 248.32226562 C-109.18176118 241.20000468 -110.41882658 237.26612569 -115.30639648 232.01538086 C-118.44589933 228.27938605 -119.27469865 224.80722631 -119 220 C-113.25 221.875 -113.25 221.875 -111 223 C-112.82623978 206.37492063 -119.08653203 188.19607346 -132.2421875 177.36328125 C-132.82226562 176.91339844 -133.40234375 176.46351563 -134 176 C-139.01440967 177.28275596 -141.6694468 179.03934214 -145 183 C-146.79320824 186.16645474 -146.79320824 186.16645474 -148 189 C-148.33 189 -148.66 189 -149 189 C-149.54427669 182.33261059 -148.88161992 178.49896155 -145 173 C-142.75 170.5625 -142.75 170.5625 -141 169 C-146.63142202 168.70871955 -150.10031709 168.88201997 -155 172 C-157.31418291 174.06167261 -157.31418291 174.06167261 -159 176 C-158.22643277 168.10961426 -155.76347629 164.23047723 -149.78515625 159.29296875 C-147.64435805 157.74241251 -145.52704391 156.76577088 -143 156 C-145.71746737 150.90474867 -147.65320758 149.46253236 -153.1171875 147.7890625 C-155 147 -155 147 -157.125 144.3125 C-158.053125 143.1678125 -158.053125 143.1678125 -159 142 C-162.16848027 141.58190799 -162.16848027 141.58190799 -165 142 C-163.9958588 139.2614331 -163.33822766 138.18790425 -160.75 136.75 C-157.72159739 135.92407201 -155.1250237 135.85465006 -152 136 C-151.34 134.02 -150.68 132.04 -150 130 C-150.7115625 131.2065625 -150.7115625 131.2065625 -151.4375 132.4375 C-154.99017572 135.99017572 -158.14072325 135.88578623 -163 136 C-167.13281385 129.38749784 -169.75795724 122.95855104 -169 115 C-168.01 114.01 -168.01 114.01 -167 113 C-163.375 113.375 -163.375 113.375 -160 114 C-160 114.66 -160 115.32 -160 116 C-159.443125 116.226875 -158.88625 116.45375 -158.3125 116.6875 C-154.31561114 118.95600449 -151.46033351 121.61899946 -150 126 C-149.34 126 -148.68 126 -148 126 C-148 126.66 -148 127.32 -148 128 C-146.35 127.67 -144.7 127.34 -143 127 C-143.226875 127.680625 -143.45375 128.36125 -143.6875 129.0625 C-144.10848149 133.019726 -142.56217506 135.37575387 -141 139 C-141.020625 140.19625 -141.04125 141.3925 -141.0625 142.625 C-140.98620489 146.74493607 -139.81211653 148.10000483 -137 151 C-137.15726562 150.43152344 -137.31453125 149.86304688 -137.4765625 149.27734375 C-138.34916955 145.48085188 -138.60432701 141.85945201 -138 138 C-135.61275663 134.55956103 -134.24657632 133.24389537 -130.125 132.4375 C-126.04325836 133.1722135 -123.48637833 134.76871787 -120 137 C-119.95101562 136.30132812 -119.90203125 135.60265625 -119.8515625 134.8828125 C-119.77679688 133.97273437 -119.70203125 133.06265625 -119.625 132.125 C-119.55539062 131.22007812 -119.48578125 130.31515625 -119.4140625 129.3828125 C-119 127 -119 127 -117 125 C-112.12247071 125.21206649 -110.24458792 126.50258705 -107 130 C-106.94165647 126.77090994 -106.90628885 123.54195662 -106.875 120.3125 C-106.85824219 119.40048828 -106.84148437 118.48847656 -106.82421875 117.54882812 C-106.79007196 112.85364513 -106.9009677 109.29170174 -109 105 C-109.51476799 102.67019821 -109.93291147 100.33900654 -110.33984375 97.98828125 C-110.89883116 95.62337237 -110.89883116 95.62337237 -114 94 C-118.54157334 94.08410321 -120.47676084 94.54355733 -123.9375 97.5625 C-124.618125 98.366875 -125.29875 99.17125 -126 100 C-125.74126898 95.60157266 -125.43893111 93.50477078 -122.5 90.125 C-121.675 89.42375 -120.85 88.7225 -120 88 C-119.67 87.67 -119.34 87.34 -119 87 C-117.37860563 86.87505384 -115.75115878 86.82428376 -114.125 86.8125 C-113.24070312 86.79832031 -112.35640625 86.78414063 -111.4453125 86.76953125 C-109 87 -109 87 -106 89 C-105.505 87.515 -105.505 87.515 -105 86 C-105.639375 85.77183594 -106.27875 85.54367188 -106.9375 85.30859375 C-109 84 -109 84 -109.6875 81.72265625 C-109.8421875 80.40587891 -109.8421875 80.40587891 -110 79.0625 C-110.44006633 75.08053093 -110.44006633 75.08053093 -113.0625 72.18359375 C-113.701875 71.79300781 -114.34125 71.40242188 -115 71 C-114 70 -114 70 -110.4375 69.9375 C-109.303125 69.958125 -108.16875 69.97875 -107 70 C-107.99 69.67 -108.98 69.34 -110 69 C-110.4064505 61.78926709 -110.39527218 54.04924281 -105.51953125 48.234375 C-104 47 -104 47 -102 47.1875 C-98.29391473 48.69309714 -97.10376229 49.78050285 -95.375 53.4375 C-93.80915221 57.81384383 -93.60043726 62.05906977 -93.50390625 66.6796875 C-93.24618242 69.17973116 -93.24618242 69.17973116 -90.96484375 70.3203125 C-90.31644531 70.54460937 -89.66804688 70.76890625 -89 71 C-89.66 71.53625 -90.32 72.0725 -91 72.625 C-93.31024799 74.89958592 -93.31024799 74.89958592 -93.25 78.25 C-93.1675 79.1575 -93.085 80.065 -93 81 C-92.278125 80.236875 -91.55625 79.47375 -90.8125 78.6875 C-87.5649944 75.58432799 -84.93773908 73.49685617 -80.5625 72.375 C-76.39310868 73.39192471 -74.19298608 76.42624491 -72 80 C-71.625 82.9375 -71.625 82.9375 -72 85 C-72.515625 84.484375 -73.03125 83.96875 -73.5625 83.4375 C-76.03995263 81.7066105 -76.03995263 81.7066105 -79.5625 81.9375 C-83.16722658 82.66354376 -83.16722658 82.66354376 -84.8125 85.625 C-86.02390767 89.06794813 -87.08178717 92.46841217 -88 96 C-87.113125 96.061875 -86.22625 96.12375 -85.3125 96.1875 C-81.20688614 97.19453736 -79.67600409 98.78879509 -77 102 C-76.0192336 104.94229921 -75.83511872 106.9908784 -75.8125 110.0625 C-75.79832031 110.94035156 -75.78414063 111.81820312 -75.76953125 112.72265625 C-76 115 -76 115 -78 117 C-78.16435547 116.07767578 -78.16435547 116.07767578 -78.33203125 115.13671875 C-78.49058594 114.32847656 -78.64914062 113.52023438 -78.8125 112.6875 C-78.96332031 111.88699219 -79.11414063 111.08648437 -79.26953125 110.26171875 C-80.09504974 107.7057016 -80.84069148 106.58349291 -83 105 C-86.7294531 105.06780824 -89.16624586 105.4591865 -92.3125 107.5 C-94.40952582 110.60670492 -94.96468687 113.41517456 -95.60546875 117.07421875 C-96 119 -96 119 -97 120 C-97.08685603 121.56172745 -97.10702219 123.12729344 -97.09765625 124.69140625 C-97.09443359 125.63564453 -97.09121094 126.57988281 -97.08789062 127.55273438 C-97.07951172 128.54595703 -97.07113281 129.53917969 -97.0625 130.5625 C-97.05798828 131.55958984 -97.05347656 132.55667969 -97.04882812 133.58398438 C-97.03700007 136.05604849 -97.02051849 138.52799518 -97 141 C-96.38640625 140.33484375 -95.7728125 139.6696875 -95.140625 138.984375 C-94.08101562 138.00210938 -94.08101562 138.00210938 -93 137 C-90.75 137.25 -90.75 137.25 -89 138 C-90.0209375 138.928125 -90.0209375 138.928125 -91.0625 139.875 C-93.84081962 144.35616068 -92.99683858 147.97320716 -92 153 C-91.67 153.99 -91.34 154.98 -91 156 C-90.41505275 162.08345145 -91.66399364 165.0941083 -95 170 C-95.66 170.33 -96.32 170.66 -97 171 C-97.11813543 181.72407184 -96.87157852 192.30759925 -96 203 C-95.319375 201.7934375 -95.319375 201.7934375 -94.625 200.5625 C-93 198 -93 198 -91 197 C-89.00039988 196.960008 -86.99952758 196.95653201 -85 197 C-84.67 197.66 -84.34 198.32 -84 199 C-84.79148437 199.65484375 -85.58296875 200.3096875 -86.3984375 200.984375 C-89.64949009 204.75286239 -90.04601431 207.43931008 -90.625 212.25 C-91.22305003 216.71921173 -91.85701674 220.78201853 -93.54296875 224.98046875 C-96.01899849 232.01367391 -95.57795458 239.68828084 -95.6875 247.0625 C-95.7207303 248.611356 -95.75522508 250.16018542 -95.79101562 251.70898438 C-95.87526307 255.47250806 -95.94237605 259.2359784 -96 263 C-95.14277344 262.98839844 -94.28554688 262.97679687 -93.40234375 262.96484375 C-91.68724609 262.95130859 -91.68724609 262.95130859 -89.9375 262.9375 C-88.81214844 262.92589844 -87.68679688 262.91429687 -86.52734375 262.90234375 C-82.94593802 263.00149673 -79.53948493 263.46695615 -76 264 C-76.00222061 263.10401093 -76.00444122 262.20802185 -76.00672913 261.28488159 C-76.02688236 252.78331275 -76.04205009 244.28175209 -76.05181217 235.78016472 C-76.05699988 231.41088709 -76.06402151 227.04162943 -76.07543945 222.67236328 C-76.08641614 218.44482353 -76.09230769 214.21730282 -76.09487724 209.98974991 C-76.09670516 208.38806993 -76.10027362 206.78639082 -76.10573006 205.18471909 C-76.13771054 195.39546693 -75.8030582 185.76129667 -75 176 C-74.83217825 173.16092785 -74.74244017 170.34532243 -74.6875 167.5 C-74.65011719 166.2109375 -74.61273438 164.921875 -74.57421875 163.59375 C-75.07357919 159.37896462 -76.34690364 157.26837845 -79 154 C-81.7459726 152.6270137 -83.9589047 152.87587366 -87 153 C-87.99 153.33 -88.98 153.66 -90 154 C-88.59908008 150.61444353 -87.20330189 148.81809026 -84 147 C-78.33944209 145.50475829 -75.13239523 146.28854591 -70 149 C-67.5625 150.6875 -67.5625 150.6875 -66 152 C-65.87109375 150.989375 -65.7421875 149.97875 -65.609375 148.9375 C-65.03034519 145.19607664 -64.22797313 141.65537498 -63.25 138 C-63.07807129 137.35409912 -62.90614258 136.70819824 -62.72900391 136.04272461 C-61.48196336 131.46747141 -59.97273265 127.02953359 -58.375 122.5625 C-56.51670308 117.1199338 -55.30429202 111.8897851 -54.5625 106.1875 C-54.42303955 105.15508179 -54.42303955 105.15508179 -54.28076172 104.10180664 C-54.01502036 101.96728176 -54.01502036 101.96728176 -54 99 C-55.91928049 96.67642006 -55.91928049 96.67642006 -59.25 96.5625 C-64.11924775 97.1305789 -65.55205917 98.63615529 -69 102 C-68.17175016 98.08463712 -67.53367197 95.56332042 -64.75 92.625 C-61.75720795 90.85653197 -59.44003835 90.32000357 -56 90 C-57.1678266 86.18586998 -57.1678266 86.18586998 -60.125 83.6875 C-60.74375 83.460625 -61.3625 83.23375 -62 83 C-60.35 82.34 -58.7 81.68 -57 81 C-57.04640625 79.92621094 -57.0928125 78.85242188 -57.140625 77.74609375 C-57.5621892 63.70273649 -57.5621892 63.70273649 -53 58 C-49.74616778 58.27115269 -48.28126007 58.73528464 -45.875 61 C-42.66633071 66.13387086 -40.40515625 71.85328126 -41 78 C-40.34 78 -39.68 78 -39 78 C-38.39129481 75.66757824 -37.86613233 73.34004093 -37.38671875 70.9765625 C-35.26954957 60.82834374 -35.26954957 60.82834374 -32.8125 57.5 C-30.77936941 54.69568195 -30.5163738 53.3853834 -31 50 C-32.16302154 48.61471351 -32.16302154 48.61471351 -35.375 48.8125 C-39.09675391 48.69546147 -39.09675391 48.69546147 -42 51 C-41.1690807 47.88405261 -40.48993358 45.54437065 -38.3125 43.125 C-35.01893911 41.52272713 -32.62003614 41.61894356 -29 42 C-26.0625 43.5 -26.0625 43.5 -24 45 C-23.30062798 43.5682384 -22.61587282 42.12932968 -21.9375 40.6875 C-21.55464844 39.88699219 -21.17179688 39.08648437 -20.77734375 38.26171875 C-19.70264486 35.87971247 -19.70264486 35.87971247 -21 33 C-21.0301846 29.41234439 -20.93324016 25.836422 -20.83984375 22.25 C-20.7287498 18.85104392 -20.7287498 18.85104392 -23 16 C-20.69 15.67 -18.38 15.34 -16 15 C-15.90332031 14.27167969 -15.80664062 13.54335938 -15.70703125 12.79296875 C-14.90216257 9.61351511 -13.71643828 7.87148212 -11.6875 5.3125 C-11.09324219 4.54550781 -10.49898437 3.77851563 -9.88671875 2.98828125 C-6.84067835 -0.22172819 -4.26439611 -1.84790498 0 0 Z " fill="#55472A" transform="translate(397,5)"/>
<path d="M0 0 C3.48483417 2.85996736 6.76410241 5.86357847 10 9 C10.59941406 9.5259375 11.19882812 10.051875 11.81640625 10.59375 C27.54811138 24.90193656 36.96026473 48.24117526 39 69 C39.18598884 73.67356562 39.28649785 78.32941881 39 83 C37.12039396 84.87960604 33.89418506 84.76421534 31.375 85.1875 C12.08433136 88.65461858 -6.53839449 94.51110389 -25 101 C-25.75361816 101.26280762 -26.50723633 101.52561523 -27.28369141 101.79638672 C-33.72490331 104.06041448 -40.01308523 106.49794504 -46.17578125 109.44140625 C-47.06942383 109.86365479 -47.96306641 110.28590332 -48.88378906 110.72094727 C-50.62861433 111.55408066 -52.3643617 112.40658759 -54.08886719 113.28100586 C-58.10365833 115.20357618 -60.19530356 116.12262041 -64.69140625 115.4375 C-67.95794523 114.01827173 -71.1815932 112.57774018 -74.375 111 C-101.45554438 98.05962429 -129.78770054 89.57750348 -159 83 C-159.33847892 57.16856202 -151.68120001 31.48849626 -133.56201172 12.55419922 C-132.05542729 11.0211752 -130.53229983 9.5072806 -129 8 C-128.16339844 7.1646875 -127.32679688 6.329375 -126.46484375 5.46875 C-91.83700861 -27.41361703 -37.53860148 -28.2140321 0 0 Z " fill="#D1A928" transform="translate(522,193)"/>
<path d="M0 0 C6.31713578 -0.02474323 12.63424325 -0.04288057 18.95141602 -0.05493164 C21.09985852 -0.05995629 23.2482976 -0.06677708 25.39672852 -0.07543945 C28.4871505 -0.08758678 31.57752722 -0.09324705 34.66796875 -0.09765625 C35.62648239 -0.10281754 36.58499603 -0.10797882 37.57255554 -0.11329651 C38.47311172 -0.11337204 39.37366791 -0.11344757 40.30151367 -0.11352539 C41.08983078 -0.115746 41.87814789 -0.11796661 42.69035339 -0.12025452 C45.20419855 0.01063184 47.54610177 0.45179104 50 1 C47.58650007 10.35518546 43.75743534 19.126276 40 28 C39.38406982 28.0093457 38.76813965 28.01869141 38.13354492 28.02832031 C-51.14099224 29.70422034 -124.672787 71.78591107 -186.5 133.375 C-187.33668213 134.20700928 -188.17336426 135.03901855 -189.03540039 135.89624023 C-197.62030688 144.43847019 -197.62030688 144.43847019 -205 154 C-211.63130206 153.43122031 -217.685675 152.19296779 -224.0625 150.3125 C-224.9807959 150.0441333 -225.8990918 149.7757666 -226.84521484 149.49926758 C-244.76316624 144.1681394 -264.03015722 137.46339312 -279 126 C-274.16967206 120.02564703 -268.75618926 115.07092863 -263 110 C-262.21625 109.278125 -261.4325 108.55625 -260.625 107.8125 C-254.87012126 102.5119538 -248.85687268 97.65608266 -242.67578125 92.87109375 C-240.26695556 91.00293398 -237.8922297 89.10264763 -235.54296875 87.16015625 C-224.86674524 78.36026972 -213.56258711 70.58712673 -202 63 C-200.71198486 62.15453613 -200.71198486 62.15453613 -199.39794922 61.29199219 C-170.90230693 42.75743529 -140.05117191 27.96679392 -107.61376953 17.82275391 C-105.30557659 17.09618841 -103.00899865 16.34369026 -100.71484375 15.57421875 C-82.78268914 9.62525843 -64.20905838 6.29374866 -45.57617188 3.40673828 C-43.40632174 3.06415201 -41.2414919 2.68998413 -39.078125 2.30859375 C-29.06653529 0.62824477 -19.1175662 0.81678452 -9 1 C-8.96261719 1.90363281 -8.92523437 2.80726563 -8.88671875 3.73828125 C-8.82097656 4.91777344 -8.75523437 6.09726562 -8.6875 7.3125 C-8.62949219 8.48425781 -8.57148437 9.65601563 -8.51171875 10.86328125 C-8.22610093 13.94551074 -8.22610093 13.94551074 -6.70703125 15.98046875 C-4.73152243 17.43273435 -4.73152243 17.43273435 -1 16 C-0.67 10.72 -0.34 5.44 0 0 Z " fill="#6E772A" transform="translate(620,278)"/>
<path d="M0 0 C-1.45029181 5.01785455 -3.62583542 9.13505441 -6.3125 13.5625 C-6.69083984 14.20896484 -7.06917969 14.85542969 -7.45898438 15.52148438 C-10.71060261 20.92984432 -13.55995471 25.15536894 -19.7578125 27.30078125 C-21.21060619 27.65045031 -22.66659621 27.98702136 -24.125 28.3125 C-61.61528089 37.71114538 -92.6733258 62.13376897 -112.453125 95.05078125 C-113.6464419 97.04810431 -114.83105983 99.04891432 -115.99462891 101.0637207 C-121.830561 111.07835222 -131.19314662 112.45112479 -141.81640625 115.328125 C-169.97397646 122.63055778 -203.30006916 126.371813 -232 120 C-228.59291867 115.19514172 -225.03510068 110.89036341 -220.80078125 106.796875 C-218.24998915 104.25161607 -215.92040566 101.53318418 -213.578125 98.796875 C-212.10213522 97.11629258 -210.6713234 95.48766149 -209 94 C-208.34 94 -207.68 94 -207 94 C-207 93.34 -207 92.68 -207 92 C-205.70703125 90.6953125 -205.70703125 90.6953125 -203.8125 89.125 C-200.62248874 86.4227409 -197.53816921 83.64703384 -194.49926758 80.77856445 C-187.3432202 74.04415702 -179.84477548 67.91163648 -172 62 C-171.39397949 61.54238281 -170.78795898 61.08476562 -170.16357422 60.61328125 C-133.08226353 32.73641277 -90.22474367 10.41648259 -44 3 C-42.80721436 2.79914795 -42.80721436 2.79914795 -41.59033203 2.59423828 C-27.65608259 0.28355972 -14.11210553 -0.4022012 0 0 Z " fill="#6E772A" transform="translate(655,314)"/>
<path d="M0 0 C1.03224701 -0.00287018 2.06449402 -0.00574036 3.12802124 -0.00869751 C5.31175281 -0.01073678 7.49550271 -0.00521652 9.67919922 0.00732422 C12.99098598 0.02328114 16.30153401 0.00752125 19.61328125 -0.01171875 C21.74219016 -0.00973438 23.87109831 -0.00588671 26 0 C26.97748199 -0.00607269 27.95496399 -0.01214539 28.96206665 -0.0184021 C42.64831078 0.11869541 55.78334344 4.60767301 65.7734375 14.1484375 C72.46657242 21.31428178 76.86262413 28.94371614 79.3984375 38.3984375 C79.60339844 39.09324219 79.80835938 39.78804687 80.01953125 40.50390625 C84.01119272 55.61716245 80.6819556 72.31095062 73.0546875 85.76953125 C64.54386957 99.19217762 52.77319119 105.8306313 37.3984375 109.3984375 C32.87553672 109.87157199 28.42239909 109.87007668 23.87890625 109.7890625 C22.65432205 109.78340271 21.42973785 109.77774292 20.16804504 109.77191162 C16.30692253 109.74975505 12.44677331 109.69959677 8.5859375 109.6484375 C5.94727915 109.62834578 3.30860606 109.61009974 0.66992188 109.59375 C-5.75423099 109.54995838 -12.17782718 109.48325706 -18.6015625 109.3984375 C-18.67108254 96.46371568 -18.72438411 83.52903833 -18.75699902 70.59416771 C-18.77265277 64.58793919 -18.79388607 58.58183853 -18.82788086 52.57568359 C-18.86048418 46.77907683 -18.8784177 40.98259303 -18.88619423 35.18590164 C-18.89173595 32.97471811 -18.90255754 30.76354129 -18.91875267 28.55241013 C-18.94053949 25.45455141 -18.94352885 22.35720038 -18.94213867 19.25927734 C-18.9529245 18.34577515 -18.96371033 17.43227295 -18.974823 16.49108887 C-18.94995012 11.36654652 -18.45319458 7.83829119 -15.6015625 3.3984375 C-11.13686688 -0.68083226 -5.71058799 -0.03504213 0 0 Z " fill="#70792D" transform="translate(356.6015625,483.6015625)"/>
<path d="M0 0 C0.96177658 -0.00922989 1.92355316 -0.01845978 2.91447449 -0.02796936 C3.9343898 -0.00641281 4.95430511 0.01514374 6.00512695 0.03735352 C7.07656448 0.03872818 8.14800201 0.04010284 9.25190735 0.04151917 C11.513743 0.05055676 13.77556162 0.07412685 16.03710938 0.11132812 C19.46528794 0.16581284 22.8910151 0.17285843 26.31958008 0.17211914 C28.52728301 0.18687945 30.7349697 0.20437083 32.94262695 0.22485352 C34.45731819 0.22986122 34.45731819 0.22986122 36.00260925 0.23497009 C46.95098893 0.44933237 57.38200357 2.32239609 65.8059082 9.72875977 C71.17487187 15.40946971 73.48551114 20.75583619 74.1184082 28.60375977 C73.7453993 39.33812699 68.08398014 45.49506632 60.8059082 52.72875977 C61.54711914 52.8305957 62.28833008 52.93243164 63.05200195 53.03735352 C68.27262306 54.34806264 71.99832545 58.32209244 75.1730957 62.54907227 C79.50925321 70.11360982 79.71045148 79.49297992 77.4699707 87.76782227 C74.47067965 96.62455231 69.0703454 102.51596866 60.8059082 106.72875977 C52.63195076 110.03428535 44.75534808 110.12545921 36.0480957 110.02172852 C34.64991719 110.01612012 33.25173271 110.01185591 31.85354614 110.00886536 C28.20714497 109.99751422 24.56111311 109.96813359 20.91485596 109.93475342 C17.18067416 109.90384013 13.44643159 109.89031502 9.7121582 109.87524414 C2.40990811 109.84325227 -4.89203973 109.79217709 -12.1940918 109.72875977 C-12.3562905 96.4030355 -12.4806662 83.07754609 -12.556777 69.75103569 C-12.59330694 63.56291714 -12.64285511 57.37547397 -12.72216797 51.18774414 C-12.79823301 45.21601858 -12.84008387 39.24494255 -12.8582325 33.27276993 C-12.87116547 30.99451597 -12.89642117 28.71629754 -12.93420219 26.43832016 C-12.98503475 23.2464293 -12.99201476 20.05722082 -12.98876953 16.86499023 C-13.01393646 15.92343582 -13.03910339 14.98188141 -13.06503296 14.01179504 C-13.0249715 10.36934719 -12.97314617 7.78228567 -10.76489735 4.79604053 C-7.4402687 1.73169336 -4.63085363 -0.02366648 0 0 Z " fill="#6F782C" transform="translate(96.194091796875,483.271240234375)"/>
<path d="M0 0 C0.96222977 -0.01606293 1.92445953 -0.03212585 2.91584778 -0.04867554 C7.36576712 -0.09323891 11.81553385 -0.13427676 16.265625 -0.15722656 C18.60199003 -0.17369007 20.93830673 -0.20085065 23.27441406 -0.23925781 C48.24038487 -0.64757562 48.24038487 -0.64757562 57.48706055 5.19287109 C58.27677246 5.69036865 59.06648438 6.18786621 59.88012695 6.70043945 C66.35311024 11.02993305 70.74120622 16.87632497 72.9831543 24.34521484 C74.97849037 35.62118382 74.55352481 48.04509778 68.36206055 57.94287109 C65.18276203 62.04300302 60.8727786 64.54008658 56.48706055 67.19287109 C55.49706055 67.85287109 54.50706055 68.51287109 53.48706055 69.19287109 C53.82850098 69.77029053 54.16994141 70.34770996 54.52172852 70.94262695 C57.32522781 75.68415666 60.12759128 80.42635347 62.9284668 85.16943359 C65.14111801 88.91630908 67.35704493 92.66119976 69.5769043 96.40380859 C70.48451158 97.9376301 71.39206696 99.47148232 72.29956055 101.00537109 C72.72543457 101.72136475 73.15130859 102.4373584 73.59008789 103.17504883 C76.48706055 108.07953016 76.48706055 108.07953016 76.48706055 109.19287109 C72.18244629 109.44122892 67.88167488 109.62199413 63.57202148 109.7421875 C62.10871756 109.79230065 60.64591024 109.86042263 59.18432617 109.94726562 C47.14692823 110.64425393 47.14692823 110.64425393 43.41308594 107.37939453 C41.80710283 104.72717447 40.66193927 102.06144832 39.48706055 99.19287109 C38.30697501 97.05425759 37.101306 94.92961156 35.8737793 92.81787109 C34.63912599 90.61042095 33.40606973 88.40207685 32.17456055 86.19287109 C31.22613281 84.49710938 31.22613281 84.49710938 30.25854492 82.76708984 C25.64709722 74.51294444 25.64709722 74.51294444 24.48706055 72.19287109 C21.84706055 71.86287109 19.20706055 71.53287109 16.48706055 71.19287109 C16.48706055 83.73287109 16.48706055 96.27287109 16.48706055 109.19287109 C7.57706055 109.19287109 -1.33293945 109.19287109 -10.51293945 109.19287109 C-10.62586103 95.84970988 -10.7176104 82.50686557 -10.77200031 69.16333485 C-10.79810359 62.96751478 -10.8335161 56.77203832 -10.89013672 50.57641602 C-10.94442874 44.59824429 -10.97435448 38.62040323 -10.98732567 32.64200401 C-10.99657047 30.36018352 -11.01462332 28.0783813 -11.04158974 25.79670143 C-11.07784145 22.60259393 -11.08288625 19.40985601 -11.08056641 16.21557617 C-11.10753098 14.79785164 -11.10753098 14.79785164 -11.13504028 13.35148621 C-11.09861904 8.72270582 -11.03779877 6.84315077 -8.03996277 3.12895203 C-6.78908623 2.17059196 -6.78908623 2.17059196 -5.51293945 1.19287109 C-3.91413614 -0.40593222 -2.21541848 0.03352578 0 0 Z " fill="#6F782C" transform="translate(199.512939453125,483.80712890625)"/>
<path d="M0 0 C0.78773804 0.00141495 1.57547607 0.0028299 2.38708496 0.00428772 C4.87268064 0.00983013 7.35818211 0.0223714 9.84375 0.03515625 C11.54166535 0.04017871 13.23958214 0.0447403 14.9375 0.04882812 C19.07295229 0.05978061 23.20833524 0.07700459 27.34375 0.09765625 C27.83875 7.52265625 27.83875 7.52265625 28.34375 15.09765625 C32.70181333 14.37131236 36.25104837 13.5593354 40.34375 12.09765625 C40.67375 8.13765625 41.00375 4.17765625 41.34375 0.09765625 C88.5969931 -1.46014297 150.9850549 11.19817868 191.34375 37.09765625 C188.0780291 39.73258998 184.63846207 41.56702289 180.90625 43.47265625 C166.33542935 51.10637667 152.47308568 59.95225711 139.29174805 69.78393555 C135.11273758 72.89287429 130.9205616 75.60610215 126.34375 78.09765625 C125.92399902 77.65977783 125.50424805 77.22189941 125.07177734 76.77075195 C120.95246582 72.55184392 116.69939135 68.80031874 111.96875 65.28515625 C110.93717773 64.51812378 110.93717773 64.51812378 109.88476562 63.7355957 C92.95944138 51.38049193 74.5554934 42.56985723 54.34375 37.09765625 C53.20325195 36.78771729 52.06275391 36.47777832 50.88769531 36.15844727 C41.74994183 33.74065573 32.62742077 32.02238575 23.26953125 30.71459961 C21.07930279 30.40813474 18.89122912 30.08882805 16.703125 29.76757812 C9.34688384 28.70517015 2.05544136 27.82472459 -5.38208008 27.54638672 C-7.65625 27.09765625 -7.65625 27.09765625 -9.14648438 25.60375977 C-10.32717303 23.49282234 -10.95831254 21.41617045 -11.65625 19.09765625 C-12.33706033 17.30678566 -13.01790327 15.51592736 -13.69946289 13.7253418 C-15.35334171 9.33156563 -16.65625 5.82636763 -16.65625 1.09765625 C-11.05397268 0.29772634 -5.65423115 -0.03911075 0 0 Z " fill="#6E772A" transform="translate(259.65625,275.90234375)"/>
<path d="M0 0 C12.44892462 10.45261058 12.44892462 10.45261058 13.3125 18.8125 C10.24103079 20.68688149 7.15366475 22.53331186 4.0625 24.375 C3.18980469 24.90802734 2.31710937 25.44105469 1.41796875 25.99023438 C0.57363281 26.48974609 -0.27070312 26.98925781 -1.140625 27.50390625 C-1.91567383 27.96998291 -2.69072266 28.43605957 -3.48925781 28.91625977 C-5.6875 29.8125 -5.6875 29.8125 -7.86230469 29.62866211 C-9.6875 28.8125 -9.6875 28.8125 -11.4375 26.0625 C-15.22083744 20.59767926 -20.79896699 17.36714773 -27.35546875 16.03515625 C-35.04908342 15.30059003 -42.61024242 15.59429344 -48.9765625 20.30859375 C-55.21871442 25.79541678 -57.8001387 30.70635109 -59.6875 38.8125 C-59.87183594 39.49054687 -60.05617188 40.16859375 -60.24609375 40.8671875 C-62.27084847 49.7904428 -60.01641112 60.23785315 -55.9375 68.25 C-51.16465539 73.68573969 -47.27378227 77.55969057 -39.80859375 78.0859375 C-26.94150178 78.52003522 -26.94150178 78.52003522 -15.6875 72.8125 C-11.910946 68.93888503 -10.76595357 66.20476784 -9.6875 60.8125 C-16.9475 60.8125 -24.2075 60.8125 -31.6875 60.8125 C-31.6875 53.5525 -31.6875 46.2925 -31.6875 38.8125 C-14.8575 38.8125 1.9725 38.8125 19.3125 38.8125 C19.3125 61.37632592 18.88993516 74.63974884 3.3125 90.8125 C-9.78876005 102.07791469 -25.67690512 104.90646774 -42.53417969 104.0078125 C-56.11142699 102.77631615 -68.39613134 97.17378785 -77.6875 87.21875 C-80.93325588 83.31369995 -83.48365184 79.38766198 -85.6875 74.8125 C-86.10128906 73.96300781 -86.51507813 73.11351562 -86.94140625 72.23828125 C-92.80939979 57.25138486 -91.8495235 36.98366249 -86.23828125 22.0625 C-83.89639689 17.15457107 -81.22363573 12.93927012 -77.6875 8.8125 C-76.90439453 7.86503906 -76.90439453 7.86503906 -76.10546875 6.8984375 C-58.38038318 -12.68109741 -21.13473237 -15.66072793 0 0 Z " fill="#70792D" transform="translate(535.6875,491.1875)"/>
<path d="M0 0 C1.02478203 -0.00043808 1.02478203 -0.00043808 2.07026672 -0.00088501 C4.32667781 0.00050747 6.58275799 0.01606449 8.83911133 0.03173828 C10.40423909 0.03546871 11.96936919 0.03831554 13.53450012 0.04031372 C17.65272475 0.04794784 21.77080818 0.06759438 25.88897705 0.08972168 C30.09173675 0.1101849 34.29451928 0.11931645 38.49731445 0.12939453 C46.74282916 0.15084054 54.98820203 0.18602084 63.23364258 0.22705078 C63.23364258 8.14705078 63.23364258 16.06705078 63.23364258 24.22705078 C47.39364258 24.22705078 31.55364258 24.22705078 15.23364258 24.22705078 C15.23364258 30.16705078 15.23364258 36.10705078 15.23364258 42.22705078 C29.42364258 42.22705078 43.61364258 42.22705078 58.23364258 42.22705078 C58.23364258 50.14705078 58.23364258 58.06705078 58.23364258 66.22705078 C44.04364258 66.22705078 29.85364258 66.22705078 15.23364258 66.22705078 C15.23364258 72.49705078 15.23364258 78.76705078 15.23364258 85.22705078 C30.74364258 85.22705078 46.25364258 85.22705078 62.23364258 85.22705078 C62.23364258 93.14705078 62.23364258 101.06705078 62.23364258 109.22705078 C37.15364258 109.22705078 12.07364258 109.22705078 -13.76635742 109.22705078 C-13.92679266 84.26154524 -13.92679266 84.26154524 -13.96166992 73.61767578 C-13.98557895 66.35551257 -14.01386005 59.09355113 -14.06811523 51.83154297 C-14.11158444 45.9765718 -14.13549714 40.12181702 -14.14586639 34.26669693 C-14.15325576 32.03316974 -14.16768541 29.79965437 -14.18927765 27.56621933 C-14.21832518 24.43711526 -14.22231276 21.30890476 -14.22045898 18.1796875 C-14.23484009 17.25683456 -14.24922119 16.33398163 -14.26403809 15.38316345 C-14.22850581 9.83827341 -13.52947999 6.58945394 -9.76635742 2.22705078 C-6.10305574 -0.21515034 -4.36524701 -0.01567414 0 0 Z " fill="#70792C" transform="translate(582.766357421875,483.77294921875)"/>
<path d="M0 0 C17.33420265 1.31823867 34.09418451 2.91124247 50.921875 7.44238281 C52.29498568 7.81082558 53.66998943 8.17229213 55.046875 8.52636719 C81.36516215 15.31939837 104.18146332 28.4530066 124 47 C122.65273688 51.04178937 119.91496373 52.60427351 116.625 55.0625 C110.97325053 59.38688996 105.66601154 63.89419338 100.4453125 68.734375 C97.71821186 71.26108166 94.92845769 73.70198678 92.109375 76.125 C90.4402037 77.60870782 88.81346271 79.14013639 87.203125 80.6875 C86.71457031 81.15220703 86.22601563 81.61691406 85.72265625 82.09570312 C84.31216224 83.44072327 82.91359728 84.79821979 81.515625 86.15625 C79 88 79 88 77.0859375 88.0625 C73.98229998 86.48162096 71.1825961 84.54544741 68.375 82.5 C67.75544434 82.05293701 67.13588867 81.60587402 66.49755859 81.14526367 C60.99518173 77.11345999 55.9841015 72.65240998 51 68 C49.6502714 66.82820173 48.2963067 65.66125916 46.9375 64.5 C38.77544659 57.35410585 31.65362778 49.560928 25 41 C24.36989014 40.19248291 24.36989014 40.19248291 23.72705078 39.36865234 C17.78688553 31.69731546 12.45575226 23.74155783 7.4375 15.4375 C6.92469482 14.5926001 6.41188965 13.7477002 5.88354492 12.87719727 C3.38985298 8.67457684 1.30156147 4.75185461 0 0 Z " fill="#6E772A" transform="translate(256,311)"/>
<path d="M0 0 C5.10585885 2.0640706 6.94719743 5.57760563 9.08398438 10.49414062 C9.41720703 11.37263672 9.75042969 12.25113281 10.09375 13.15625 C10.47885742 14.16437744 10.86396484 15.17250488 11.26074219 16.21118164 C11.66969727 17.2964917 12.07865234 18.38180176 12.5 19.5 C12.9321582 20.63622803 13.36431641 21.77245605 13.80957031 22.94311523 C14.73248428 25.3713052 15.65332008 27.80028588 16.57226562 30.22998047 C18.00296457 34.01214831 19.44623884 37.78944906 20.890625 41.56640625 C29.07144305 62.98368205 29.07144305 62.98368205 32.71044922 73.57299805 C35.4944007 81.58615514 38.63539449 89.46900819 41.75024414 97.3581543 C42.17039795 98.43363525 42.59055176 99.50911621 43.0234375 100.6171875 C43.40419434 101.58253418 43.78495117 102.54788086 44.17724609 103.54248047 C45 106 45 106 45 109 C40.05 109 35.1 109 30 109 C27.32359739 102.0036757 24.65715587 95.00365583 22 88 C21.53078125 86.76636719 21.0615625 85.53273438 20.578125 84.26171875 C20.22234375 83.30910156 19.8665625 82.35648438 19.5 81.375 C19.2009375 80.57835937 18.901875 79.78171875 18.59375 78.9609375 C18 77 18 77 18 74 C3.15 74 -11.7 74 -27 74 C-27.99 77.3 -28.98 80.6 -30 84 C-30.65371709 85.98435836 -31.3203347 87.96458378 -32.0078125 89.9375 C-32.35457031 90.93394531 -32.70132813 91.93039062 -33.05859375 92.95703125 C-33.58646484 94.46330078 -33.58646484 94.46330078 -34.125 96 C-34.48464844 97.03511719 -34.84429688 98.07023438 -35.21484375 99.13671875 C-37.86515828 106.73031656 -37.86515828 106.73031656 -39 109 C-43.95 109 -48.9 109 -54 109 C-53.25221849 105.26109246 -52.42872153 102.14420222 -51.14453125 98.60546875 C-50.77247559 97.57558838 -50.40041992 96.54570801 -50.01708984 95.48461914 C-49.6195752 94.39656982 -49.22206055 93.30852051 -48.8125 92.1875 C-48.40467285 91.06400146 -47.9968457 89.94050293 -47.57666016 88.78295898 C-43.62857535 77.92923275 -39.61521654 67.10682959 -35.39868164 56.35449219 C-35.1021167 55.59813477 -34.80555176 54.84177734 -34.5 54.0625 C-34.20536865 53.31129883 -33.9107373 52.56009766 -33.60717773 51.78613281 C-31.3409574 45.96889596 -29.25200142 40.10117644 -27.20581055 34.20361328 C-25.08721133 28.14216404 -22.73838665 22.19360107 -20.30078125 16.25390625 C-19.25666554 13.64204924 -18.35523525 11.05073601 -17.5 8.375 C-13.87639504 0.22188884 -8.24939227 -1.2553423 0 0 Z " fill="#55462B" transform="translate(753,484)"/>
<path d="M0 0 C9.24 0 18.48 0 28 0 C28 35.97 28 71.94 28 109 C18.76 109 9.52 109 0 109 C0 73.03 0 37.06 0 0 Z " fill="#6F782B" transform="translate(290,484)"/>
<path d="M0 0 C3.14014429 1.72201461 3.71003946 3.73082138 4.9375 7.0625 C5.94091363 12.54131603 6.23180852 17.59764182 4.9375 23.0625 C6.2575 24.0525 7.5775 25.0425 8.9375 26.0625 C8.29425781 26.29195312 7.65101563 26.52140625 6.98828125 26.7578125 C4.71353516 27.87763038 4.71353516 27.87763038 4.35546875 30.3046875 C4.27941406 31.17351562 4.20335937 32.04234375 4.125 32.9375 C3.39832404 37.63712396 3.39832404 37.63712396 1.26171875 39.609375 C-0.6875 40.6875 -0.6875 40.6875 -4.0625 42.0625 C-4.0625 41.4025 -4.0625 40.7425 -4.0625 40.0625 C-6.01952552 40.29056288 -6.01952552 40.29056288 -8.0625 41.0625 C-8.99924062 42.96943626 -9.92918036 44.88023829 -10.8125 46.8125 C-15.78624225 55.76523606 -26.24652279 62.6143188 -34.0625 69.0625 C-34.16046875 68.44761719 -34.2584375 67.83273438 -34.359375 67.19921875 C-35.22819148 62.26191122 -35.22819148 62.26191122 -37.6875 58 C-41.2361002 56.59923676 -44.37190718 56.1929169 -48.0625 57.0625 C-50.76376227 58.7259892 -53.03541351 60.61732692 -55.0625 63.0625 C-55.0625 63.7225 -55.0625 64.3825 -55.0625 65.0625 C-54.0725 64.5675 -54.0725 64.5675 -53.0625 64.0625 C-49.0494676 63.52742901 -47.52321967 63.73198372 -44.1875 66.125 C-42.0625 69.0625 -42.0625 69.0625 -41.375 72.375 C-42.17828051 76.68350456 -43.64946282 78.61161525 -46.37890625 81.93359375 C-48.03469751 84.02734371 -49.31453538 86.11530889 -50.625 88.4375 C-53.66928772 93.62736284 -57.1169624 98.49284629 -60.625 103.375 C-61.17937744 104.15214355 -61.73375488 104.92928711 -62.30493164 105.72998047 C-65.29993835 109.86302717 -68.32874659 113.57905408 -72.0625 117.0625 C-69.92705047 97.45008194 -66.42079563 78.05832096 -61.0625 59.0625 C-60.84368164 58.27375488 -60.62486328 57.48500977 -60.39941406 56.67236328 C-57.93795535 48.05368528 -55.70640508 41.55164028 -48.2421875 36.03515625 C-44.74410696 32.86933067 -43.201719 28.87531582 -41.3515625 24.6015625 C-40.0625 22.0625 -40.0625 22.0625 -37.0625 20.0625 C-33.58325524 19.61834109 -31.75332245 19.63306983 -28.75 21.5 C-25.66276063 26.18803015 -26.0625 31.59291876 -26.0625 37.0625 C-22.99447901 31.43779486 -21.17188353 26.36846952 -20.0625 20.0625 C-19.5675 21.5475 -19.5675 21.5475 -19.0625 23.0625 C-18.0725 22.4025 -17.0825 21.7425 -16.0625 21.0625 C-14.7425 21.0625 -13.4225 21.0625 -12.0625 21.0625 C-11.96453125 20.4334375 -11.8665625 19.804375 -11.765625 19.15625 C-10.57053765 12.31540516 -9.00515903 6.09711712 -4.0625 1 C-2.0625 0.0625 -2.0625 0.0625 0 0 Z " fill="#FBFBFA" transform="translate(408.0625,67.9375)"/>
<path d="M0 0 C23.64705882 0 23.64705882 0 33.375 6.125 C40.99263447 14.46812346 42.32510669 23.49979 42.2109375 34.42578125 C41.61955969 44.44634964 37.77469761 51.68003549 30.375 58.375 C20.92272385 64.84234684 11.7766248 63 0 63 C0 42.21 0 21.42 0 0 Z " fill="#FBFBFA" transform="translate(367,507)"/>
<path d="M0 0 C4.29 0 8.58 0 13 0 C13 35.97 13 71.94 13 109 C8.71 109 4.42 109 0 109 C0 73.03 0 37.06 0 0 Z " fill="#524327" transform="translate(814,484)"/>
<path d="M0 0 C-8.55129848 11.21227656 -17.99923583 22.12719021 -29 31 C-30.09782048 31.90995815 -31.19545894 32.82013593 -32.29296875 33.73046875 C-44.90824044 44.10663005 -57.84121871 52.57875081 -72.3125 60.1875 C-73.42931152 60.77716553 -74.54612305 61.36683105 -75.69677734 61.97436523 C-76.74172363 62.51262939 -77.78666992 63.05089355 -78.86328125 63.60546875 C-80.27540894 64.33479614 -80.27540894 64.33479614 -81.71606445 65.07885742 C-82.46976318 65.38283447 -83.22346191 65.68681152 -84 66 C-84.66 65.67 -85.32 65.34 -86 65 C-75.8230716 48.18447924 -63.72278365 32.94020092 -48 21 C-46.85144531 20.11054688 -46.85144531 20.11054688 -45.6796875 19.203125 C-35.65804657 11.79730221 -12.85681797 -4.13254863 0 0 Z " fill="#6E762A" transform="translate(632,351)"/>
<path d="M0 0 C1.6168716 2.4253074 2.52368657 4.13862079 3.48046875 6.80957031 C3.75415283 7.5675592 4.02783691 8.3255481 4.30981445 9.10650635 C4.59945068 9.9221405 4.88908691 10.73777466 5.1875 11.578125 C5.49067139 12.42292419 5.79384277 13.26772339 6.10620117 14.13812256 C6.74690013 15.92618389 7.3856039 17.71496121 8.02246094 19.50439453 C8.9919303 22.22733471 9.96808479 24.94780463 10.9453125 27.66796875 C11.56810832 29.40871111 12.19051661 31.14959218 12.8125 32.890625 C13.10213623 33.69816223 13.39177246 34.50569946 13.69018555 35.33770752 C13.96386963 36.10830505 14.23755371 36.87890259 14.51953125 37.67285156 C14.75776611 38.34108948 14.99600098 39.00932739 15.24145508 39.69781494 C16.2535639 42.76956686 17.11149801 45.89024304 18 49 C6.45 49 -5.1 49 -17 49 C-15.0225641 42.40854701 -12.98637563 35.94760052 -10.64453125 29.4921875 C-10.33803146 28.64069122 -10.03153168 27.78919495 -9.71574402 26.91189575 C-8.75047818 24.23202776 -7.78155992 21.55349805 -6.8125 18.875 C-6.15144905 17.04175451 -5.49063964 15.2084219 -4.83007812 13.375 C-3.22283783 8.91565643 -1.61232393 4.45750792 0 0 Z " fill="#FAFAF9" transform="translate(748,496)"/>
<path d="M0 0 C3.01125 -0.061875 6.0225 -0.12375 9.125 -0.1875 C10.06230957 -0.21481201 10.99961914 -0.24212402 11.96533203 -0.27026367 C17.05755689 -0.32069785 20.64821535 0.05692376 25 3 C28.11876545 6.07912013 28.45609299 8.56113667 28.5 12.875 C28.41164871 16.89498378 28.21264025 19.5409907 25.625 22.6875 C22.16379554 25.73665631 20.70198539 26.12471076 16.2109375 26.09765625 C15.36321777 26.09515869 14.51549805 26.09266113 13.64208984 26.09008789 C12.5639502 26.08098389 11.48581055 26.07187988 10.375 26.0625 C6.95125 26.041875 3.5275 26.02125 0 26 C0 17.42 0 8.84 0 0 Z " fill="#F9FAF7" transform="translate(216,507)"/>
<path d="M0 0 C3.320625 -0.061875 6.64125 -0.12375 10.0625 -0.1875 C11.09511963 -0.21481201 12.12773926 -0.24212402 13.19165039 -0.27026367 C19.72710441 -0.32889174 24.76065903 0.28313338 29.9375 4.625 C31.62134577 8.38889055 31.65021076 11.95424417 31 16 C28.63241552 20.12135075 26.43094461 21.54328418 22 23 C19.4128418 23.22705078 19.4128418 23.22705078 16.69921875 23.1953125 C15.37796997 23.18781982 15.37796997 23.18781982 14.0300293 23.18017578 C12.37547729 23.15286377 12.37547729 23.15286377 10.6875 23.125 C5.3971875 23.063125 5.3971875 23.063125 0 23 C0 15.41 0 7.82 0 0 Z " fill="#FCFCFB" transform="translate(113,548)"/>
<path d="M0 0 C3.14014429 1.72201461 3.71003946 3.73082138 4.9375 7.0625 C5.94091363 12.54131603 6.23180852 17.59764182 4.9375 23.0625 C6.2575 24.0525 7.5775 25.0425 8.9375 26.0625 C8.0403125 26.31 8.0403125 26.31 7.125 26.5625 C4.16736249 28.5905943 3.75526829 30.73637557 2.74609375 34.08984375 C1.82002396 36.34909614 0.82362575 37.52706095 -1.0625 39.0625 C-5.12152362 39.61101671 -8.25286441 38.38142212 -12.0625 37.0625 C-12.17207031 36.14726563 -12.28164063 35.23203125 -12.39453125 34.2890625 C-12.55308594 33.10054687 -12.71164062 31.91203125 -12.875 30.6875 C-13.10123047 28.91246094 -13.10123047 28.91246094 -13.33203125 27.1015625 C-13.76949334 23.76717916 -13.76949334 23.76717916 -17.0625 22.0625 C-15.4125 21.7325 -13.7625 21.4025 -12.0625 21.0625 C-11.96453125 20.4334375 -11.8665625 19.804375 -11.765625 19.15625 C-10.57053765 12.31540516 -9.00515903 6.09711712 -4.0625 1 C-2.0625 0.0625 -2.0625 0.0625 0 0 Z " fill="#55462A" transform="translate(408.0625,67.9375)"/>
<path d="M0 0 C1.8125 1.4375 1.8125 1.4375 3 3 C3 3.66 3 4.32 3 5 C5.64 4.67 8.28 4.34 11 4 C11 4.66 11 5.32 11 6 C10.28972656 6.13277344 9.57945312 6.26554688 8.84765625 6.40234375 C7.92855469 6.57894531 7.00945312 6.75554687 6.0625 6.9375 C5.14597656 7.11152344 4.22945313 7.28554687 3.28515625 7.46484375 C1.04710156 7.77714988 1.04710156 7.77714988 0 9 C1.98 9.66 3.96 10.32 6 11 C6 11.66 6 12.32 6 13 C5.38125 13.2475 4.7625 13.495 4.125 13.75 C1.60474173 15.23250486 0.98768341 16.28387064 0 19 C0 19.99 0 20.98 0 22 C0.37125 21.484375 0.7425 20.96875 1.125 20.4375 C3 19 3 19 6.0625 19.125 C9 20 9 20 11 23 C11.22705078 26.1862793 11.22705078 26.1862793 11.1953125 30.07421875 C11.1924826 30.7580513 11.18965271 31.44188385 11.18673706 32.1464386 C11.17555684 34.32697165 11.15045691 36.50709145 11.125 38.6875 C11.11496738 40.16731177 11.10584202 41.64712999 11.09765625 43.12695312 C11.07562481 46.751436 11.04111002 50.37567766 11 54 C8.25207308 50.4182565 5.96232535 46.64260748 3.6875 42.75 C1.17669745 38.45743702 -1.30409991 34.46569248 -4.5625 30.6875 C-7.51867212 26.97001232 -7.38761893 23.92990091 -7.078125 19.30859375 C-6.97459972 16.24942172 -8.01962673 13.87984649 -9 11 C-9.37083338 7.93797584 -9.48387098 5.05256878 -9 2 C-6.27029258 -1.43740934 -4.00407793 -1.43736131 0 0 Z " fill="#F6F5F3" transform="translate(279,148)"/>
<path d="M0 0 C12.87 0 25.74 0 39 0 C39 4.62 39 9.24 39 14 C26.13 14 13.26 14 0 14 C0 9.38 0 4.76 0 0 Z " fill="#D3AC2D" transform="translate(658,531)"/>
<path d="M0 0 C3.17625 -0.061875 6.3525 -0.12375 9.625 -0.1875 C11.1092749 -0.22846802 11.1092749 -0.22846802 12.62353516 -0.27026367 C17.85422434 -0.31943025 21.48205183 0.0569202 26 3 C28.47035712 5.47035712 28.35042281 6.3960007 28.4375 9.8125 C28.35870972 13.70699116 28.15997849 14.77603012 25.8125 18.0625 C20.53762344 21.69630385 14.86557993 21.12539963 8.6875 21.0625 C4.3871875 21.0315625 4.3871875 21.0315625 0 21 C0 14.07 0 7.14 0 0 Z " fill="#FDFDFC" transform="translate(113,506)"/>
<path d="M0 0 C3.6578218 2.03993908 5.66946174 3.50419262 8 7 C8.34061873 10.0169088 8.57212107 12.09407815 8 15 C5.82425584 17.69105198 4.08934144 19.45532928 1 21 C-6.13230769 21.70153846 -6.13230769 21.70153846 -9.9375 18.625 C-13.1398393 14.54929544 -13.52171797 12.21717968 -13 7 C-9.6917275 1.44506484 -6.43313684 -0.61857085 0 0 Z " fill="#F9F9F8" transform="translate(673,137)"/>
<path d="M0 0 C3.5386994 1.65139305 4.81070153 2.71605229 7 6 C7.54531842 9.06526351 7.54325893 11.93408329 7 15 C4.81840855 17.75569447 3.12822506 19.43588747 0 21 C-4.37959914 21.50533836 -6.51443013 21.27875307 -10.375 19.0625 C-13.39866894 16.19368203 -14.09394423 13.31374699 -14.3125 9.22265625 C-13.76471499 5.32653534 -11.83898983 3.64092077 -9 1 C-5.93570224 -0.53214888 -3.3834358 -0.22938548 0 0 Z " fill="#F9F9F8" transform="translate(619,77)"/>
<path d="M0 0 C2.87029869 1.79393668 4.49131638 2.98263276 6 6 C6.54724071 11.69130337 5.59333707 14.56117185 2 19 C-1.46996232 20.73498116 -5.21507195 20.60794181 -9 20 C-12 17.5625 -12 17.5625 -14 15 C-14.33 14.67 -14.66 14.34 -15 14 C-15.58968059 6.92383292 -15.58968059 6.92383292 -13.125 3.0625 C-9.2120691 -0.73534469 -5.24715458 -0.67968324 0 0 Z " fill="#FAF9F9" transform="translate(538,38)"/>
<path d="M0 0 C3.73325038 2.51422985 4.74796824 4.13364082 6 8.4375 C6 12.53094236 5.22004022 14.59065251 3 18 C-1.25929566 20.83953044 -5.00382943 20.73987876 -10 20 C-13.125 18.125 -13.125 18.125 -15 15 C-15.98876625 9.97377154 -15.7769173 6.29486216 -13.125 1.875 C-8.71888247 -0.76867052 -5.01279217 -1.01243586 0 0 Z " fill="#FBFAFA" transform="translate(491,91)"/>
<path d="M0 0 C3.25383222 0.27115269 4.71873993 0.73528464 7.125 3 C10.33366929 8.13387086 12.59484375 13.85328126 12 20 C12.66 20.33 13.32 20.66 14 21 C12.54261898 21.98058352 11.08406325 22.95942132 9.625 23.9375 C8.81289063 24.48277344 8.00078125 25.02804688 7.1640625 25.58984375 C5 27 5 27 3 28 C3 27.01 3 26.02 3 25 C2.01 25 1.02 25 0 25 C0 24.34 0 23.68 0 23 C-1.32 23 -2.64 23 -4 23 C-4.738041 5.92255125 -4.738041 5.92255125 0 0 Z " fill="#56482C" transform="translate(344,63)"/>
<path d="M0 0 C0.33 0.66 0.66 1.32 1 2 C5.9651828 4.2813002 11.01721853 4.38891634 16.390625 4.65625 C19 5 19 5 21 7 C20.401875 7.165 19.80375 7.33 19.1875 7.5 C16.22986249 9.5280943 15.81776829 11.67387557 14.80859375 15.02734375 C13.88252396 17.28659614 12.88612575 18.46456095 11 20 C6.94097638 20.54851671 3.80963559 19.31892212 0 18 C-0.10957031 17.08476563 -0.21914063 16.16953125 -0.33203125 15.2265625 C-0.49058594 14.03804687 -0.64914062 12.84953125 -0.8125 11.625 C-0.96332031 10.44164063 -1.11414063 9.25828125 -1.26953125 8.0390625 C-1.70699334 4.70467916 -1.70699334 4.70467916 -5 3 C-3.35 2.67 -1.7 2.34 0 2 C0 1.34 0 0.68 0 0 Z " fill="#55472B" transform="translate(396,87)"/>
<path d="M0 0 C1.32 0.33 2.64 0.66 4 1 C0.16233166 4.4756001 -3.67319119 7.85599382 -7.92163086 10.82421875 C-20.52483844 19.63637546 -35.38867248 30.70517159 -38.32576466 46.68317604 C-41.09971674 65.46025725 -39.5961437 85.18878837 -38 104 C-38.33 104 -38.66 104 -39 104 C-39 82.55 -39 61.1 -39 39 C-37.515 38.505 -37.515 38.505 -36 38 C-36 37.34 -36 36.68 -36 36 C-35.34 36 -34.68 36 -34 36 C-33.67 35.01 -33.34 34.02 -33 33 C-32.34 33 -31.68 33 -31 33 C-31 32.34 -31 31.68 -31 31 C-30.34 31 -29.68 31 -29 31 C-28.731875 30.360625 -28.46375 29.72125 -28.1875 29.0625 C-27 27 -27 27 -24 26 C-24 25.34 -24 24.68 -24 24 C-23.34 24 -22.68 24 -22 24 C-21.67 23.01 -21.34 22.02 -21 21 C-20.34 21 -19.68 21 -19 21 C-19 20.34 -19 19.68 -19 19 C-18.34 19 -17.68 19 -17 19 C-16.731875 18.360625 -16.46375 17.72125 -16.1875 17.0625 C-15 15 -15 15 -12 14 C-12 13.34 -12 12.68 -12 12 C-11.34 12 -10.68 12 -10 12 C-9.67 11.01 -9.34 10.02 -9 9 C-8.34 9 -7.68 9 -7 9 C-7 8.34 -7 7.68 -7 7 C-6.34 7 -5.68 7 -5 7 C-4.731875 6.360625 -4.46375 5.72125 -4.1875 5.0625 C-3 3 -3 3 0 2 C0 1.34 0 0.68 0 0 Z " fill="#DCD9D3" transform="translate(659,166)"/>
<path d="M0 0 C2 1.5 2 1.5 3 3 C1.88625 3.556875 1.88625 3.556875 0.75 4.125 C-2.48187156 6.32854879 -3.98189394 8.68454004 -6 12 C-7 13 -7 13 -9.9375 13.1875 C-13 13 -13 13 -15 11 C-15 7.625 -15 7.625 -14 4 C-9.49411541 -0.28608535 -5.91867701 -0.67919244 0 0 Z " fill="#55462A" transform="translate(395,28)"/>
<path d="M0 0 C0.33 0.66 0.66 1.32 1 2 C3.57437581 2.91280138 3.57437581 2.91280138 6.5625 3.625 C7.57441406 3.88539062 8.58632813 4.14578125 9.62890625 4.4140625 C10.80259766 4.70410156 10.80259766 4.70410156 12 5 C11.21625 5.598125 10.4325 6.19625 9.625 6.8125 C5.18987118 10.50844069 4.63115581 13.42479034 4 19 C2.68 18.67 1.36 18.34 0 18 C-0.10957031 17.08476563 -0.21914063 16.16953125 -0.33203125 15.2265625 C-0.49058594 14.03804687 -0.64914062 12.84953125 -0.8125 11.625 C-0.96332031 10.44164063 -1.11414063 9.25828125 -1.26953125 8.0390625 C-1.70699334 4.70467916 -1.70699334 4.70467916 -5 3 C-3.35 2.67 -1.7 2.34 0 2 C0 1.34 0 0.68 0 0 Z " fill="#756953" transform="translate(396,87)"/>
<path d="M0 0 C2.12038635 2.61514317 4.13091744 5.19637616 6 8 C5.01 9.3303125 5.01 9.3303125 4 10.6875 C2.01139933 13.98111986 1.56264926 15.28251873 2 19 C4.475 19.99 4.475 19.99 7 21 C7 21.33 7 21.66 7 22 C0.62209711 21.39831105 0.62209711 21.39831105 -1.7265625 19.89453125 C-3.68592939 16.97952223 -3.21002296 14.45419607 -3.0625 11 C-2.69522598 5.65260011 -2.69522598 5.65260011 -5 1 C-3.35 0.67 -1.7 0.34 0 0 Z " fill="#63553C" transform="translate(379,20)"/>
<path d="M0 0 C2.53541298 0.09086451 5.03554784 0.2370945 7.5625 0.4375 C8.62887695 0.51581055 8.62887695 0.51581055 9.71679688 0.59570312 C11.47821999 0.72574107 13.23916173 0.86226897 15 1 C14.03513672 2.12535156 14.03513672 2.12535156 13.05078125 3.2734375 C10.55460496 6.59216331 10.22811937 8.89385135 10 13 C10.33 13.99 10.66 14.98 11 16 C8.625 15.75 8.625 15.75 6 15 C4.07206325 12.49368222 3.95926915 10.61305696 3.625 7.4375 C3.34004649 3.9346658 3.34004649 3.9346658 0.9375 2.0625 C0.298125 1.711875 -0.34125 1.36125 -1 1 C-0.67 0.67 -0.34 0.34 0 0 Z " fill="#6E624A" transform="translate(283,75)"/>
<path d="M0 0 C0.12375 1.6396875 0.12375 1.6396875 0.25 3.3125 C0.61163131 7.03600693 0.61163131 7.03600693 3.0625 8.75 C3.701875 9.1625 4.34125 9.575 5 10 C5 10.99 5 11.98 5 13 C-0.36443913 12.6257368 -2.49646001 11.0040457 -6 7 C-7.12534105 5.64381501 -7.12534105 5.64381501 -10.0625 5.9375 C-11.031875 5.958125 -12.00125 5.97875 -13 6 C-11.9958588 3.2614331 -11.33822766 2.18790425 -8.75 0.75 C-5.72159739 -0.07592799 -3.1250237 -0.14534994 0 0 Z " fill="#695C44" transform="translate(245,141)"/>
<path d="M0 0 C0.66 0 1.32 0 2 0 C1.67 0.99 1.34 1.98 1 3 C0.88011328 5.66096726 0.81469648 8.29774859 0.79467773 10.9597168 C0.78477814 11.76970123 0.77487854 12.57968567 0.76467896 13.41421509 C0.73308191 16.09251987 0.7083136 18.77084239 0.68359375 21.44921875 C0.66302267 23.30581626 0.64202616 25.16240911 0.62062073 27.01899719 C0.56541593 31.90650656 0.5159996 36.79405808 0.46777344 41.68164062 C0.41754682 46.66865798 0.3618668 51.65561408 0.30664062 56.64257812 C0.19907851 66.4283331 0.09762918 76.21414124 0 86 C-0.33 86 -0.66 86 -1 86 C-1.02312283 74.93465142 -1.04091478 63.86930855 -1.05181217 52.80394077 C-1.05704113 47.66640434 -1.06413901 42.52888437 -1.07543945 37.39135742 C-1.08626787 32.4376859 -1.09227674 27.48403026 -1.09487724 22.53034782 C-1.09673157 20.63602384 -1.10035234 18.74170076 -1.10573006 16.8473835 C-1.11293989 14.20365614 -1.11399097 11.55999529 -1.11352539 8.91625977 C-1.11712067 8.12504227 -1.12071594 7.33382477 -1.12442017 6.51863098 C-1.11405216 1.11405216 -1.11405216 1.11405216 0 0 Z " fill="#C6C0B7" transform="translate(621,106)"/>
<path d="M0 0 C2.04071248 4.08142495 2.18405043 4.79652489 1.5625 9 C1.07860192 12.34144356 0.97382233 14.76416968 2 18 C-0.59937954 15.53058944 -2.79020692 12.81939117 -5 10 C-4.01 10 -3.02 10 -2 10 C-1.34 6.7 -0.68 3.4 0 0 Z " fill="#B7B1A6" transform="translate(393,130)"/>
<path d="M0 0 C0.66 0.66 1.32 1.32 2 2 C-0.31 3.32 -2.62 4.64 -5 6 C-5 5.34 -5 4.68 -5 4 C-6.65 4.33 -8.3 4.66 -10 5 C-9.67 3.68 -9.34 2.36 -9 1 C-7.329375 1.2475 -7.329375 1.2475 -5.625 1.5 C-2.27967967 2.0455458 -2.27967967 2.0455458 0 2 C0 1.34 0 0.68 0 0 Z " fill="#C9C4BB" transform="translate(409,104)"/>
<path d="M0 0 C-1.29096781 0.81360995 -2.58279875 1.62585046 -3.875 2.4375 C-4.59429687 2.88996094 -5.31359375 3.34242187 -6.0546875 3.80859375 C-8 5 -8 5 -10 6 C-10 5.01 -10 4.02 -10 3 C-10.66 2.67 -11.32 2.34 -12 2 C-10.56656 1.46809459 -9.12804633 0.94984742 -7.6875 0.4375 C-6.48673828 0.00244141 -6.48673828 0.00244141 -5.26171875 -0.44140625 C-3 -1 -3 -1 0 0 Z " fill="#B6B0A5" transform="translate(357,85)"/>
<path d="M0 0 C0.66 0.33 1.32 0.66 2 1 C0.515 2.485 0.515 2.485 -1 4 C-0.67 4.66 -0.34 5.32 0 6 C-1.65 7.32 -3.3 8.64 -5 10 C-3.14285714 2.42857143 -3.14285714 2.42857143 0 0 Z " fill="#766A53" transform="translate(333,97)"/>
<path d="M0 0 C1.231394 2.46278801 1.07159196 4.2795055 1 7 C3.475 7.99 3.475 7.99 6 9 C6 9.33 6 9.66 6 10 C3.6568787 9.74438677 1.32156597 9.40729228 -1 9 C-2.60031344 5.79937313 -1.03173691 3.27728194 0 0 Z " fill="#AEA79A" transform="translate(380,32)"/>
</svg>
