<?xml version="1.0" encoding="UTF-8"?>
<svg version="1.1" xmlns="http://www.w3.org/2000/svg" width="811" height="201">
<path d="M0 0 C267.63 0 535.26 0 811 0 C811 66.33 811 132.66 811 201 C543.37 201 275.74 201 0 201 C0 134.67 0 68.34 0 0 Z " fill="#FDFDFE" transform="translate(0,0)"/>
<path d="M0 0 C75.24 0 150.48 0 228 0 C228 50.16 228 100.32 228 152 C152.76 152 77.52 152 0 152 C0 101.84 0 51.68 0 0 Z " fill="#003398" transform="translate(32,25)"/>
<path d="M0 0 C3.26877381 2.11661195 6.24141347 4.48282693 8 8 C8.60306016 14.34372903 8.3029393 19.49510117 5 25 C2.25 27.5 2.25 27.5 -1 29 C-4.40640029 28.82967999 -6.94848739 28.52575631 -10 27 C-10.33 30.96 -10.66 34.92 -11 39 C-13.64 39 -16.28 39 -19 39 C-19 26.46 -19 13.92 -19 1 C-16.69 1 -14.38 1 -12 1 C-11.67 1.66 -11.34 2.32 -11 3 C-10.484375 2.505 -9.96875 2.01 -9.4375 1.5 C-5.97570157 -0.63033749 -4.0106591 -0.61179546 0 0 Z " fill="#11409F" transform="translate(525,117)"/>
<path d="M0 0 C2.64 0 5.28 0 8 0 C8.33 3.96 8.66 7.92 9 12 C9.99 11.34 10.98 10.68 12 10 C18.7069586 9.12039887 18.7069586 9.12039887 21.8203125 11.23828125 C25.80271041 15.11486666 27.14658138 18.20203985 27.25 23.8125 C27.1966467 29.04112335 25.94103721 32.46821233 22.7421875 36.640625 C20.28745157 38.55597949 18.51299964 38.36573768 15.4375 38.3125 C13.98150391 38.30669922 13.98150391 38.30669922 12.49609375 38.30078125 C10 38 10 38 8 36 C7.67 36.66 7.34 37.32 7 38 C4.69 38 2.38 38 0 38 C0 25.46 0 12.92 0 0 Z " fill="#1443A1" transform="translate(497,44)"/>
<path d="M0 0 C2.31 0 4.62 0 7 0 C7 12.21 7 24.42 7 37 C4.69 37 2.38 37 0 37 C-0.33 36.34 -0.66 35.68 -1 35 C-1.99 35.66 -2.98 36.32 -4 37 C-7.38958816 37.53758076 -10.61185738 37.55634526 -14 37 C-16.5 34.6875 -16.5 34.6875 -18 32 C-18.66 31.01 -19.32 30.02 -20 29 C-20.71249183 23.72258959 -20.64556003 19.29112006 -18.25 14.5 C-13.43873518 9.1541502 -13.43873518 9.1541502 -8.5 8.625 C-5 9 -5 9 -1 12 C-0.67 8.04 -0.34 4.08 0 0 Z " fill="#0C3D9E" transform="translate(408,45)"/>
<path d="M0 0 C2.31 0 4.62 0 7 0 C7 12.21 7 24.42 7 37 C5.02 37 3.04 37 1 37 C1 36.01 1 35.02 1 34 C0.44183594 34.4846875 -0.11632812 34.969375 -0.69140625 35.46875 C-4.54960154 38.02782369 -8.53491001 37.79475712 -13 37 C-15.82424288 34.80977082 -17.41508603 33.16982793 -19 30 C-20.05533009 18.24060755 -20.05533009 18.24060755 -17.953125 13.77734375 C-16.21218544 11.69333669 -14.42984899 10.2149245 -12 9 C-6.69492469 8.60703146 -5.43191861 8.67606105 -1 12 C-0.67 8.04 -0.34 4.08 0 0 Z " fill="#07389B" transform="translate(469,45)"/>
<path d="M0 0 C9.24 0 18.48 0 28 0 C28 2.31 28 4.62 28 7 C21.4 7 14.8 7 8 7 C8 9.64 8 12.28 8 15 C14.27 15 20.54 15 27 15 C27 17.31 27 19.62 27 22 C20.73 22 14.46 22 8 22 C8 25.3 8 28.6 8 32 C14.93 32 21.86 32 29 32 C29 33.98 29 35.96 29 38 C19.43 38 9.86 38 0 38 C0 25.46 0 12.92 0 0 Z " fill="#0E3E9E" transform="translate(387,107)"/>
<path d="M0 0 C4.79678945 2.39839473 7.63683712 5.18278335 10 10 C10.82454452 14.68644179 10.47650352 18.02866591 8.375 22.3125 C5.37222432 25.71037774 2.67399648 28.52402863 -1.953125 29.34765625 C-6.6387002 29.55332081 -10.06304302 28.68428885 -14 26 C-17.27995861 22.46109729 -18.2743502 19.71715731 -18.4375 15 C-18.22880791 10.65659581 -17.63841631 7.57462855 -15 4 C-9.85718813 0.16810096 -6.36706622 -0.80851635 0 0 Z " fill="#0D3D9E" transform="translate(491,117)"/>
<path d="M0 0 C3.67479316 2.41052946 5.98693085 5.19957061 7.25 9.4375 C7.57502514 14.10161083 6.64500578 17.61710337 4.625 21.8125 C1.25430588 25.53800403 -1.90447747 27.27390724 -6.9921875 27.56640625 C-12.77668281 27.2450454 -15.85592019 25.71149004 -19.75 21.4375 C-22.30179459 16.555806 -22.20880941 11.66490038 -20.75 6.4375 C-16.23659391 -1.49464279 -8.21652575 -4.11709785 0 0 Z " fill="#0D3D9E" transform="translate(747.75,118.5625)"/>
<path d="M0 0 C2.64 0 5.28 0 8 0 C8.02505615 0.76143311 8.0501123 1.52286621 8.07592773 2.30737305 C8.19219048 5.76757376 8.31477978 9.22752254 8.4375 12.6875 C8.47681641 13.88568359 8.51613281 15.08386719 8.55664062 16.31835938 C8.61948242 18.05375977 8.61948242 18.05375977 8.68359375 19.82421875 C8.73858032 21.41882935 8.73858032 21.41882935 8.79467773 23.0456543 C8.9848525 25.78204532 9.3931507 28.32856732 10 31 C11.62463842 31.05395478 13.24978541 31.09277195 14.875 31.125 C15.77992188 31.14820313 16.68484375 31.17140625 17.6171875 31.1953125 C20.18806994 31.24324836 20.18806994 31.24324836 22 29 C22.37268887 26.08811755 22.37268887 26.08811755 22.4140625 22.6796875 C22.45273437 21.42285156 22.49140625 20.16601562 22.53125 18.87109375 C22.5621875 17.55238281 22.593125 16.23367187 22.625 14.875 C22.66318029 13.53513082 22.70223206 12.19528617 22.7421875 10.85546875 C22.8367203 7.57045381 22.92227156 4.28544862 23 1 C25.31 1 27.62 1 30 1 C30.12400035 5.32322461 30.21452256 9.64549602 30.2746582 13.9699707 C30.29973644 15.43955525 30.33380856 16.90901587 30.37719727 18.37817383 C30.43815499 20.49591681 30.46627316 22.61200576 30.48828125 24.73046875 C30.51446533 26.00301514 30.54064941 27.27556152 30.56762695 28.58666992 C29.85026708 32.90039396 28.3614642 34.30023403 25 37 C19.56776883 39.47993162 14.59142003 39.60974589 8.8125 38.25 C5.62328043 36.83256908 4.07349194 35.81402478 2 33 C-0.3131782 25.99484333 -0.23409697 19.3262811 -0.125 12 C-0.11597656 10.84371094 -0.10695313 9.68742187 -0.09765625 8.49609375 C-0.07424922 5.66384353 -0.04145995 2.83203381 0 0 Z " fill="#0B3B9D" transform="translate(643,107)"/>
<path d="M0 0 C4.89270769 2.40019623 7.18686184 4.86277521 9 10 C9 12.31 9 14.62 9 17 C3.06 17 -2.88 17 -9 17 C-8.01 18.65 -7.02 20.3 -6 22 C-3.45709375 22.58350505 -3.45709375 22.58350505 -1 22 C-0.34 21.34 0.32 20.68 1 20 C4.625 19.875 4.625 19.875 8 20 C7.38722388 22.96175123 6.74627478 24.38058783 5 27 C0.02392921 29.4273516 -4.73958926 29.50436101 -10 28 C-13.68618286 25.17654079 -15.82142446 22.50001569 -17 18 C-17.67184331 12.06538411 -16.32709838 7.84338257 -13 3 C-9.16935651 -0.40501644 -4.95918559 -0.86542651 0 0 Z " fill="#11409F" transform="translate(553,117)"/>
<path d="M0 0 C4.44388398 1.54848741 6.57307389 3.25632226 8.9375 7.375 C10 11 10 11 10 17 C4.06 17 -1.88 17 -8 17 C-7.34 18.65 -6.68 20.3 -6 22 C-4.02 22 -2.04 22 0 22 C0.33 21.34 0.66 20.68 1 20 C3.64 20 6.28 20 9 20 C7.73090537 23.91304179 6.53743024 25.85610288 3 28 C-0.61930698 29.20643566 -3.19231005 29.32268559 -7 29 C-11.8717278 26.5641361 -14.24582077 24.16508328 -16 19 C-16.73156875 13.34050287 -16.34317184 8.79187964 -13 4 C-8.68847354 0.27640896 -5.65818676 -0.79413148 0 0 Z " fill="#1141A0" transform="translate(357,117)"/>
<path d="M0 0 C0.84046875 -0.04898438 1.6809375 -0.09796875 2.546875 -0.1484375 C5.59119747 0.44107003 7.72856512 1.4404745 10.04101562 3.53417969 C12.67474054 7.54433434 12.13633512 12.54860172 12.125 17.1875 C12.145625 18.26193359 12.16625 19.33636719 12.1875 20.44335938 C12.23451611 23.08801554 12.2544491 25.7300121 12.25 28.375 C9.94 28.375 7.63 28.375 5.25 28.375 C5.25 27.715 5.25 27.055 5.25 26.375 C4.239375 26.890625 3.22875 27.40625 2.1875 27.9375 C-1.7623259 29.62457139 -4.55405555 29.48336268 -8.75 28.375 C-11.1875 27.3125 -11.1875 27.3125 -12.75 25.375 C-13.29878196 21.05334209 -13.57749959 18.68520769 -11.25 15 C-6.55682713 11.94943764 -1.31499884 11.02718757 4.25 11.375 C3.92 10.055 3.59 8.735 3.25 7.375 C-0.16656024 7.20822718 -0.16656024 7.20822718 -3.75 7.375 C-4.41 8.035 -5.07 8.695 -5.75 9.375 C-8.375 9.5 -8.375 9.5 -10.75 9.375 C-11.08 8.385 -11.41 7.395 -11.75 6.375 C-5.75953458 0.22689076 -5.75953458 0.22689076 0 0 Z " fill="#0C3C9D" transform="translate(578.75,116.625)"/>
<path d="M0 0 C3.92364027 2.31487497 6.54973408 4.64920223 8 9 C8 11.64 8 14.28 8 17 C2.06 17 -3.88 17 -10 17 C-9.01 18.65 -8.02 20.3 -7 22 C-3.87364791 22.41746608 -3.87364791 22.41746608 -1 22 C-0.67 21.34 -0.34 20.68 0 20 C2.64 20.33 5.28 20.66 8 21 C4.25 26.875 4.25 26.875 2 28 C-9.16693109 29.20353009 -9.16693109 29.20353009 -12.93359375 26.73046875 C-16.94741168 21.83527833 -17.34108828 17.87020667 -17.28515625 11.765625 C-16.79538746 7.01553862 -14.38053044 4.53392271 -11.3125 1.125 C-7.55699178 -0.702004 -4.07321491 -0.86256316 0 0 Z " fill="#0E3E9E" transform="translate(437,54)"/>
<path d="M0 0 C2.31 0 4.62 0 7 0 C7.33 4.29 7.66 8.58 8 13 C9.32 12.01 10.64 11.02 12 10 C16.24649943 9.45953644 18.25823192 9.51623821 21.875 11.875 C24.15806998 14.15806998 24.95184891 15.04712626 25.11352539 18.24658203 C25.10828857 19.15778809 25.10305176 20.06899414 25.09765625 21.0078125 C25.09443359 21.99394531 25.09121094 22.98007813 25.08789062 23.99609375 C25.07951172 25.02863281 25.07113281 26.06117188 25.0625 27.125 C25.05798828 28.16527344 25.05347656 29.20554688 25.04882812 30.27734375 C25.03701952 32.85161962 25.02055075 35.42578146 25 38 C22.69 38 20.38 38 18 38 C17.97494385 37.39937744 17.9498877 36.79875488 17.92407227 36.17993164 C17.8084472 33.47388563 17.68557064 30.76821717 17.5625 28.0625 C17.52318359 27.11697266 17.48386719 26.17144531 17.44335938 25.19726562 C17.40146484 24.29814453 17.35957031 23.39902344 17.31640625 22.47265625 C17.27974854 21.64000244 17.24309082 20.80734863 17.20532227 19.94946289 C17.20632897 17.99661142 17.20632897 17.99661142 16 17 C14.00041636 16.95919217 11.99954746 16.95745644 10 17 C7.38462703 20.95495425 7.55735726 25.16827373 7.375 29.75 C7.33632813 30.54277344 7.29765625 31.33554688 7.2578125 32.15234375 C7.163892 34.10119416 7.08087178 36.05056451 7 38 C4.69 38 2.38 38 0 38 C0 25.46 0 12.92 0 0 Z " fill="#08399C" transform="translate(311,107)"/>
<path d="M0 0 C2.64 0 5.28 0 8 0 C9.65 5.28 11.3 10.56 13 16 C15.65927684 13.34072316 16.1810914 10.40591734 17.125 6.875 C17.30675781 6.21628906 17.48851562 5.55757812 17.67578125 4.87890625 C18.12315437 3.25423544 18.56236535 1.62732107 19 0 C21.64 0 24.28 0 27 0 C25.60469623 6.04631634 23.7445975 11.75747204 21.5625 17.5625 C21.26279297 18.37396484 20.96308594 19.18542969 20.65429688 20.02148438 C14.92597713 35.41712031 14.92597713 35.41712031 11 38 C7.96963091 38.31981404 5.03429271 38.23340713 2 38 C2 36.02 2 34.04 2 32 C3.98 31.34 5.96 30.68 8 30 C8.4799251 24.4808613 7.32993444 20.76470447 5.15625 15.703125 C3.92776631 12.83112934 2.82484018 9.93277822 1.75 7 C1.41484375 6.0925 1.0796875 5.185 0.734375 4.25 C0 2 0 2 0 0 Z " fill="#0C3D9E" transform="translate(527,55)"/>
<path d="M0 0 C8.25 0 16.5 0 25 0 C25 1.98 25 3.96 25 6 C19.06 6 13.12 6 7 6 C7 8.97 7 11.94 7 15 C12.28 15 17.56 15 23 15 C23 16.98 23 18.96 23 21 C17.72 21 12.44 21 7 21 C7 26.28 7 31.56 7 37 C4.69 37 2.38 37 0 37 C0 24.79 0 12.58 0 0 Z " fill="#02359A" transform="translate(294,45)"/>
<path d="M0 0 C4.63235294 2.26470588 4.63235294 2.26470588 6 5 C6.08449628 6.7404417 6.10723024 8.48409722 6.09765625 10.2265625 C6.09443359 11.2578125 6.09121094 12.2890625 6.08789062 13.3515625 C6.07951172 14.43179688 6.07113281 15.51203125 6.0625 16.625 C6.05798828 17.71296875 6.05347656 18.8009375 6.04882812 19.921875 C6.03701776 22.61463789 6.02054778 25.30729188 6 28 C3.69 28 1.38 28 -1 28 C-1.02505615 27.39937744 -1.0501123 26.79875488 -1.07592773 26.17993164 C-1.1915528 23.47388563 -1.31442936 20.76821717 -1.4375 18.0625 C-1.47681641 17.11697266 -1.51613281 16.17144531 -1.55664062 15.19726562 C-1.59853516 14.29814453 -1.64042969 13.39902344 -1.68359375 12.47265625 C-1.72025146 11.64000244 -1.75690918 10.80734863 -1.79467773 9.94946289 C-1.79367103 7.99661142 -1.79367103 7.99661142 -3 7 C-4.99958364 6.95919217 -7.00045254 6.95745644 -9 7 C-10.14654482 9.29308963 -10.19729117 10.79909656 -10.31640625 13.3515625 C-10.35830078 14.20234375 -10.40019531 15.053125 -10.44335938 15.9296875 C-10.48267578 16.81914062 -10.52199219 17.70859375 -10.5625 18.625 C-10.60568359 19.5221875 -10.64886719 20.419375 -10.69335938 21.34375 C-10.79956861 23.56234283 -10.90161194 25.7810488 -11 28 C-13.64 28 -16.28 28 -19 28 C-19 19.09 -19 10.18 -19 1 C-16.69 1 -14.38 1 -12 1 C-11.67 1.66 -11.34 2.32 -11 3 C-10.29875 2.505 -9.5975 2.01 -8.875 1.5 C-5.52269394 -0.24902925 -3.73275441 -0.4665943 0 0 Z " fill="#0B3B9D" transform="translate(700,117)"/>
<path d="M0 0 C2.31 0 4.62 0 7 0 C7.02505615 0.60062256 7.0501123 1.20124512 7.07592773 1.82006836 C7.1915528 4.52611437 7.31442936 7.23178283 7.4375 9.9375 C7.47681641 10.88302734 7.51613281 11.82855469 7.55664062 12.80273438 C7.59853516 13.70185547 7.64042969 14.60097656 7.68359375 15.52734375 C7.72025146 16.35999756 7.75690918 17.19265137 7.79467773 18.05053711 C7.79367103 20.00338858 7.79367103 20.00338858 9 21 C11.45809998 21.2500773 11.45809998 21.2500773 14 21 C16.3968665 18.6031335 16.28281133 17.92971686 16.4140625 14.6484375 C16.45273437 13.79765625 16.49140625 12.946875 16.53125 12.0703125 C16.5621875 11.18085938 16.593125 10.29140625 16.625 9.375 C16.66367187 8.4778125 16.70234375 7.580625 16.7421875 6.65625 C16.83659357 4.4377073 16.92216748 2.21917597 17 0 C19.64 0 22.28 0 25 0 C25 8.91 25 17.82 25 27 C22.69 27 20.38 27 18 27 C18 26.01 18 25.02 18 24 C17.34 24 16.68 24 16 24 C16 24.66 16 25.32 16 26 C11.67437961 28.2283499 8.69542622 28.1951994 4 27 C1.3520332 24.92577902 0.13923125 23.78658172 -0.45410156 20.43457031 C-0.4331543 19.49194336 -0.41220703 18.54931641 -0.390625 17.578125 C-0.37773437 16.55332031 -0.36484375 15.52851563 -0.3515625 14.47265625 C-0.31804687 13.40917969 -0.28453125 12.34570312 -0.25 11.25 C-0.23195313 10.17105469 -0.21390625 9.09210938 -0.1953125 7.98046875 C-0.14821415 5.31941212 -0.082456 2.66015746 0 0 Z " fill="#1241A0" transform="translate(422,118)"/>
<path d="M0 0 C4.23002388 2.36778166 4.23002388 2.36778166 6 5 C6.74209099 8.96058103 6.56614701 12.80086333 6.375 16.8125 C6.34792969 17.88693359 6.32085938 18.96136719 6.29296875 20.06835938 C6.22241045 22.71429568 6.12388756 25.3561124 6 28 C3.69 28 1.38 28 -1 28 C-1.02505615 27.39937744 -1.0501123 26.79875488 -1.07592773 26.17993164 C-1.1915528 23.47388563 -1.31442936 20.76821717 -1.4375 18.0625 C-1.47681641 17.11697266 -1.51613281 16.17144531 -1.55664062 15.19726562 C-1.59853516 14.29814453 -1.64042969 13.39902344 -1.68359375 12.47265625 C-1.72025146 11.64000244 -1.75690918 10.80734863 -1.79467773 9.94946289 C-1.79367103 7.99661142 -1.79367103 7.99661142 -3 7 C-4.99958364 6.95919217 -7.00045254 6.95745644 -9 7 C-11.61537297 10.95495425 -11.44264274 15.16827373 -11.625 19.75 C-11.66367187 20.54277344 -11.70234375 21.33554688 -11.7421875 22.15234375 C-11.836108 24.10119416 -11.91912822 26.05056451 -12 28 C-14.31 28 -16.62 28 -19 28 C-19 19.09 -19 10.18 -19 1 C-16.69 1 -14.38 1 -12 1 C-11.67 1.66 -11.34 2.32 -11 3 C-10.484375 2.505 -9.96875 2.01 -9.4375 1.5 C-6.02095736 -0.60248778 -3.95351948 -0.54531303 0 0 Z " fill="#05379B" transform="translate(779,117)"/>
<path d="M0 0 C2.75329021 1.79562405 4.52627461 3.05254922 6 6 C6.08426094 7.6674606 6.10725143 9.33825187 6.09765625 11.0078125 C6.09443359 11.99394531 6.09121094 12.98007813 6.08789062 13.99609375 C6.07951172 15.02863281 6.07113281 16.06117188 6.0625 17.125 C6.05798828 18.16527344 6.05347656 19.20554688 6.04882812 20.27734375 C6.03701952 22.85161962 6.02055075 25.42578146 6 28 C3.69 28 1.38 28 -1 28 C-1.02505615 27.43490723 -1.0501123 26.86981445 -1.07592773 26.28759766 C-1.19179956 23.73316258 -1.31456537 21.1791045 -1.4375 18.625 C-1.47681641 17.73554688 -1.51613281 16.84609375 -1.55664062 15.9296875 C-1.59853516 15.07890625 -1.64042969 14.228125 -1.68359375 13.3515625 C-1.72025146 12.56604004 -1.75690918 11.78051758 -1.79467773 10.97119141 C-1.890891 8.92476504 -1.890891 8.92476504 -3 7 C-5.91652174 6.83318891 -5.91652174 6.83318891 -9 7 C-11.3968665 9.3968665 -11.28281133 10.07028314 -11.4140625 13.3515625 C-11.47207031 14.62773437 -11.47207031 14.62773437 -11.53125 15.9296875 C-11.5621875 16.81914062 -11.593125 17.70859375 -11.625 18.625 C-11.68300781 19.97078125 -11.68300781 19.97078125 -11.7421875 21.34375 C-11.83659357 23.5622927 -11.92216748 25.78082403 -12 28 C-14.31 28 -16.62 28 -19 28 C-19 19.09 -19 10.18 -19 1 C-16.69 1 -14.38 1 -12 1 C-12 1.66 -12 2.32 -12 3 C-11.319375 2.505 -10.63875 2.01 -9.9375 1.5 C-6.27568094 -0.36986505 -4.06785405 -0.50848176 0 0 Z " fill="#0B3C9D" transform="translate(616,117)"/>
<path d="M0 0 C3.44785847 0.88808476 4.74719312 1.74172364 7.0625 4.53125 C7.69311614 8.62676444 7.53075707 12.65009313 7.375 16.78125 C7.35244141 17.90789062 7.32988281 19.03453125 7.30664062 20.1953125 C7.24774254 22.97530232 7.16554201 25.75260332 7.0625 28.53125 C4.7525 28.53125 2.4425 28.53125 0.0625 28.53125 C0.03744385 27.93062744 0.0123877 27.33000488 -0.01342773 26.71118164 C-0.1290528 24.00513563 -0.25192936 21.29946717 -0.375 18.59375 C-0.41431641 17.64822266 -0.45363281 16.70269531 -0.49414062 15.72851562 C-0.53603516 14.82939453 -0.57792969 13.93027344 -0.62109375 13.00390625 C-0.65775146 12.17125244 -0.69440918 11.33859863 -0.73217773 10.48071289 C-0.73117103 8.52786142 -0.73117103 8.52786142 -1.9375 7.53125 C-4.39559998 7.2811727 -4.39559998 7.2811727 -6.9375 7.53125 C-9.3343665 9.9281165 -9.22031133 10.60153314 -9.3515625 13.8828125 C-9.40957031 15.15898438 -9.40957031 15.15898438 -9.46875 16.4609375 C-9.4996875 17.35039063 -9.530625 18.23984375 -9.5625 19.15625 C-9.62050781 20.50203125 -9.62050781 20.50203125 -9.6796875 21.875 C-9.77409357 24.0935427 -9.85966748 26.31207403 -9.9375 28.53125 C-12.2475 28.53125 -14.5575 28.53125 -16.9375 28.53125 C-16.9375 19.62125 -16.9375 10.71125 -16.9375 1.53125 C-14.9575 1.53125 -12.9775 1.53125 -10.9375 1.53125 C-10.9375 2.52125 -10.9375 3.51125 -10.9375 4.53125 C-10.2775 3.87125 -9.6175 3.21125 -8.9375 2.53125 C-5.58289198 0.29484465 -3.89107417 0.06275926 0 0 Z " fill="#0B3B9D" transform="translate(374.9375,53.46875)"/>
<path d="M0 0 C2.31 0 4.62 0 7 0 C7.02505615 0.60062256 7.0501123 1.20124512 7.07592773 1.82006836 C7.1915528 4.52611437 7.31442936 7.23178283 7.4375 9.9375 C7.47681641 10.88302734 7.51613281 11.82855469 7.55664062 12.80273438 C7.59853516 13.70185547 7.64042969 14.60097656 7.68359375 15.52734375 C7.72025146 16.35999756 7.75690918 17.19265137 7.79467773 18.05053711 C7.79367103 20.00338858 7.79367103 20.00338858 9 21 C11.45809998 21.2500773 11.45809998 21.2500773 14 21 C16.3968665 18.6031335 16.28281133 17.92971686 16.4140625 14.6484375 C16.45273437 13.79765625 16.49140625 12.946875 16.53125 12.0703125 C16.5621875 11.18085937 16.593125 10.29140625 16.625 9.375 C16.66367187 8.4778125 16.70234375 7.580625 16.7421875 6.65625 C16.83659357 4.4377073 16.92216748 2.21917597 17 0 C19.31 0 21.62 0 24 0 C24 8.91 24 17.82 24 27 C22.02 27 20.04 27 18 27 C18 26.01 18 25.02 18 24 C17.18208984 24.72703125 17.18208984 24.72703125 16.34765625 25.46875 C13.51523143 27.31618849 11.79555186 27.46344978 8.4375 27.5 C7.48746094 27.5309375 6.53742188 27.561875 5.55859375 27.59375 C3 27 3 27 1.171875 25.17578125 C-0.60222551 20.36796886 -0.31417962 15.76442942 -0.1875 10.6875 C-0.17396484 9.66076172 -0.16042969 8.63402344 -0.14648438 7.57617188 C-0.11123883 5.05024091 -0.061967 2.5253934 0 0 Z " fill="#093A9C" transform="translate(326,55)"/>
<path d="M0 0 C0 2.97 0 5.94 0 9 C1.65 9 3.3 9 5 9 C5 10.65 5 12.3 5 14 C3.35 14 1.7 14 0 14 C0.33 19.28 0.66 24.56 1 30 C2.32 30 3.64 30 5 30 C5.04254356 31.99954746 5.04080783 34.00041636 5 36 C4 37 4 37 0.625 37.1875 C-3 37 -3 37 -6 35 C-6.92188461 32.23434618 -7.11785222 30.61716298 -7.09765625 27.76953125 C-7.09443359 26.96708984 -7.09121094 26.16464844 -7.08789062 25.33789062 C-7.07951172 24.50451172 -7.07113281 23.67113281 -7.0625 22.8125 C-7.05798828 21.96751953 -7.05347656 21.12253906 -7.04882812 20.25195312 C-7.03705403 18.16793845 -7.0191189 16.08396023 -7 14 C-7.99 14 -8.98 14 -10 14 C-10 12.35 -10 10.7 -10 9 C-9.01 9 -8.02 9 -7 9 C-7.103125 8.071875 -7.20625 7.14375 -7.3125 6.1875 C-7.209375 5.135625 -7.10625 4.08375 -7 3 C-4.61107499 1.11400657 -3.08148442 0 0 0 Z " fill="#05379B" transform="translate(301,109)"/>
<path d="M0 0 C1.125 4.75 1.125 4.75 0 7 C-2.33333333 7.33333333 -4.66666667 7.66666667 -7 8 C-8.11823815 10.23647631 -8.19396061 11.64891529 -8.31640625 14.1328125 C-8.35830078 14.93847656 -8.40019531 15.74414062 -8.44335938 16.57421875 C-8.50233398 17.83685547 -8.50233398 17.83685547 -8.5625 19.125 C-8.62727539 20.39923828 -8.62727539 20.39923828 -8.69335938 21.69921875 C-8.79954236 23.79928223 -8.90028497 25.89961948 -9 28 C-11.31 28 -13.62 28 -16 28 C-16 19.09 -16 10.18 -16 1 C-14.02 1 -12.04 1 -10 1 C-9.67 1.66 -9.34 2.32 -9 3 C-8.62875 2.505 -8.2575 2.01 -7.875 1.5 C-5.25305607 -0.59755514 -3.26157528 -0.21743835 0 0 Z " fill="#093A9C" transform="translate(470,117)"/>
<path d="M0 0 C2.31 0 4.62 0 7 0 C7 8.91 7 17.82 7 27 C4.69 27 2.38 27 0 27 C0 18.09 0 9.18 0 0 Z " fill="#0A3B9D" transform="translate(714,118)"/>
<path d="M0 0 C2.34765848 1.7998715 2.88599016 3.23289675 3.31640625 6.12890625 C3.51371334 9.99230641 3.47391734 12.28034775 1.3125 15.5625 C-1.50673193 17.31499552 -2.74836447 17.73161799 -6 17 C-8.44182312 14.88815298 -9.75727395 13.23814802 -10.38671875 10.02734375 C-10.57264385 6.59734629 -10.25109841 4.38630524 -8.375 1.5 C-5.29690766 -0.44405832 -3.57597151 -0.608676 0 0 Z " fill="#F0F3F9" transform="translate(490,123)"/>
<path d="M0 0 C3.0625 0.5625 3.0625 0.5625 5.4375 2.625 C7.47799207 6.31358182 7.65705887 8.40058793 7.0625 12.5625 C5.375 15.5 5.375 15.5 3.0625 17.5625 C0.5625 18.1875 0.5625 18.1875 -1.9375 17.5625 C-4.37879161 15.45111266 -5.71394143 13.81691197 -6.2890625 10.58984375 C-6.41849236 7.44234478 -6.10584971 4.93661046 -4.8125 2.0625 C-2.9375 0.5625 -2.9375 0.5625 0 0 Z " fill="#F4F6FA" transform="translate(739.9375,122.4375)"/>
<path d="M0 0 C2.21633759 1.77307007 2.88354434 3.0979308 3.24609375 5.90625 C3.48071042 13.30357563 3.48071042 13.30357563 1 16 C-2.625 16.75 -2.625 16.75 -6 17 C-8.68585151 13.93756084 -9.41177958 12.00164341 -9.375 7.9375 C-9.38273437 7.08027344 -9.39046875 6.22304687 -9.3984375 5.33984375 C-8.48089242 -0.04848471 -4.96447458 -0.72398588 0 0 Z " fill="#F4F6FA" transform="translate(466,60)"/>
<path d="M0 0 C2.5625 0.4375 2.5625 0.4375 4.875 1.9375 C6.82434792 4.82542284 7.13729079 6.99523883 6.94921875 10.46484375 C6.31977395 13.67564802 5.00432312 15.32565298 2.5625 17.4375 C0 17.9375 0 17.9375 -2.4375 17.4375 C-4.06640625 16.25 -4.06640625 16.25 -5.4375 14.4375 C-5.8359375 11.84375 -5.8359375 11.84375 -5.8125 8.9375 C-5.82023437 7.9784375 -5.82796875 7.019375 -5.8359375 6.03125 C-5.4375 3.4375 -5.4375 3.4375 -4.06640625 1.62109375 C-2.4375 0.4375 -2.4375 0.4375 0 0 Z " fill="#F6F8FB" transform="translate(401.4375,59.5625)"/>
<path d="M0 0 C4.05445642 -0.43132515 5.54970958 -0.30019361 9 2 C9.36328125 4.71484375 9.36328125 4.71484375 9.3125 7.9375 C9.30863281 8.99839844 9.30476562 10.05929688 9.30078125 11.15234375 C9 14 9 14 7 17 C4.0625 17.4375 4.0625 17.4375 1 17 C-1.09033013 14.86083038 -1.92624387 13.50201754 -2.36328125 10.52734375 C-2.34652344 9.67269531 -2.32976563 8.81804687 -2.3125 7.9375 C-2.30863281 7.08027344 -2.30476562 6.22304687 -2.30078125 5.33984375 C-2 3 -2 3 0 0 Z " fill="#F6F7FB" transform="translate(516,123)"/>
<path d="M0 0 C1.6328125 1.17578125 1.6328125 1.17578125 3 3 C3.3984375 5.59375 3.3984375 5.59375 3.375 8.5 C3.38273438 9.4590625 3.39046875 10.418125 3.3984375 11.40625 C3 14 3 14 1.6328125 15.8203125 C-0.70189825 17.50711309 -2.18869079 17.42169638 -5 17 C-6.6328125 15.85546875 -6.6328125 15.85546875 -8 14 C-8.3984375 11.15234375 -8.3984375 11.15234375 -8.375 7.9375 C-8.38273437 6.87402344 -8.39046875 5.81054688 -8.3984375 4.71484375 C-8.26695312 3.81894531 -8.13546875 2.92304687 -8 2 C-4.76746204 -0.15502531 -3.74849077 -0.46856135 0 0 Z " fill="#F8F9FC" transform="translate(513,60)"/>
<path d="M0 0 C0.66 0 1.32 0 2 0 C2.33 1.32 2.66 2.64 3 4 C4.98 4 6.96 4 9 4 C8.319375 4.721875 7.63875 5.44375 6.9375 6.1875 C4.68262931 8.8205652 4.68262931 8.8205652 5.25 11.8125 C5.4975 12.534375 5.745 13.25625 6 14 C5.01 13.34 4.02 12.68 3 12 C-0.14221967 12.31506627 -0.14221967 12.31506627 -3 13 C-2.9175 12.2575 -2.835 11.515 -2.75 10.75 C-3.07105184 7.21842973 -4.35265617 6.23369636 -7 4 C-5.02 3.67 -3.04 3.34 -1 3 C-0.67 2.01 -0.34 1.02 0 0 Z " fill="#D7B417" transform="translate(145,44)"/>
<path d="M0 0 C0.226875 0.639375 0.45375 1.27875 0.6875 1.9375 C1.85250896 4.27193661 1.85250896 4.27193661 4.625 4.75 C5.40875 4.8325 6.1925 4.915 7 5 C6.01 6.485 6.01 6.485 5 8 C4.83300768 11.12521833 4.83300768 11.12521833 5 14 C4.0925 13.62875 3.185 13.2575 2.25 12.875 C-0.88097015 11.69640701 -0.88097015 11.69640701 -3.375 12.875 C-3.91125 13.24625 -4.4475 13.6175 -5 14 C-4.67 11.69 -4.34 9.38 -4 7 C-4.99 6.67 -5.98 6.34 -7 6 C-7 5.67 -7 5.34 -7 5 C-5.824375 4.87625 -5.824375 4.87625 -4.625 4.75 C-1.85250896 4.27193661 -1.85250896 4.27193661 -0.6875 1.9375 C-0.460625 1.298125 -0.23375 0.65875 0 0 Z " fill="#DAB515" transform="translate(171,137)"/>
<path d="M0 0 C0.66 0 1.32 0 2 0 C2 1.32 2 2.64 2 4 C3.98 4 5.96 4 8 4 C8 4.66 8 5.32 8 6 C7.505 6.45375 7.01 6.9075 6.5 7.375 C4.54781326 9.12128967 4.54781326 9.12128967 5 13 C3.6078125 12.690625 3.6078125 12.690625 2.1875 12.375 C-1.15173402 11.63307034 -1.15173402 11.63307034 -4 14 C-3.95875 13.071875 -3.9175 12.14375 -3.875 11.1875 C-3.72863661 7.84190281 -3.72863661 7.84190281 -6 5 C-4.35 5 -2.7 5 -1 5 C-0.67 3.35 -0.34 1.7 0 0 Z " fill="#D6B317" transform="translate(102,119)"/>
<path d="M0 0 C0.66 0 1.32 0 2 0 C2.33 1.32 2.66 2.64 3 4 C4.65 4 6.3 4 8 4 C8 4.66 8 5.32 8 6 C7.01 6.495 7.01 6.495 6 7 C6 8.98 6 10.96 6 13 C5.071875 12.62875 4.14375 12.2575 3.1875 11.875 C2.135625 11.58625 1.08375 11.2975 0 11 C-0.99 11.66 -1.98 12.32 -3 13 C-3.309375 11.88625 -3.61875 10.7725 -3.9375 9.625 C-4.82326483 6.2054845 -4.82326483 6.2054845 -6 4 C-4.02 4 -2.04 4 0 4 C0 2.68 0 1.36 0 0 Z " fill="#DAB615" transform="translate(120,51)"/>
<path d="M0 0 C0.226875 0.639375 0.45375 1.27875 0.6875 1.9375 C1.85250896 4.27193661 1.85250896 4.27193661 4.625 4.75 C5.40875 4.8325 6.1925 4.915 7 5 C7 5.66 7 6.32 7 7 C6.01 7.495 6.01 7.495 5 8 C5 9.98 5 11.96 5 14 C4.071875 13.62875 3.14375 13.2575 2.1875 12.875 C1.135625 12.58625 0.08375 12.2975 -1 12 C-1.99 12.66 -2.98 13.32 -4 14 C-3.67 12.02 -3.34 10.04 -3 8 C-4.32 7.34 -5.64 6.68 -7 6 C-7 5.67 -7 5.34 -7 5 C-5.824375 4.87625 -5.824375 4.87625 -4.625 4.75 C-1.85250896 4.27193661 -1.85250896 4.27193661 -0.6875 1.9375 C-0.460625 1.298125 -0.23375 0.65875 0 0 Z " fill="#DBB615" transform="translate(171,50)"/>
<path d="M0 0 C0.66 0 1.32 0 2 0 C2.33 1.65 2.66 3.3 3 5 C4.65 5 6.3 5 8 5 C7.484375 5.37125 6.96875 5.7425 6.4375 6.125 C4.63680017 8.03173152 4.63680017 8.03173152 5.3125 11.1875 C5.6528125 12.5796875 5.6528125 12.5796875 6 14 C5.071875 13.649375 4.14375 13.29875 3.1875 12.9375 C0.0197047 11.67617372 0.0197047 11.67617372 -3 13 C-2.67 11.35 -2.34 9.7 -2 8 C-3.32 7.34 -4.64 6.68 -6 6 C-6 5.67 -6 5.34 -6 5 C-4.02 5 -2.04 5 0 5 C0 3.35 0 1.7 0 0 Z " fill="#E3BB10" transform="translate(120,137)"/>
<path d="M0 0 C0.66 0 1.32 0 2 0 C2.12375 0.928125 2.12375 0.928125 2.25 1.875 C2.81258459 4.18437567 2.81258459 4.18437567 5.0625 5.25 C5.701875 5.4975 6.34125 5.745 7 6 C6.01 7.485 6.01 7.485 5 9 C5 10.32 5 11.64 5 13 C3.6078125 12.690625 3.6078125 12.690625 2.1875 12.375 C-1.15173402 11.63307034 -1.15173402 11.63307034 -4 14 C-3.67 11.69 -3.34 9.38 -3 7 C-3.99 6.67 -4.98 6.34 -6 6 C-6 5.67 -6 5.34 -6 5 C-4.35 5 -2.7 5 -1 5 C-0.67 3.35 -0.34 1.7 0 0 Z " fill="#DFB912" transform="translate(102,69)"/>
<path d="M0 0 C2 2 2 2 2 5 C3.65 5 5.3 5 7 5 C6.01 6.485 6.01 6.485 5 8 C4.83300768 11.12521833 4.83300768 11.12521833 5 14 C4.01 13.34 3.02 12.68 2 12 C-0.28397032 12.34605611 -1.93409037 12.96704519 -4 14 C-3.95875 13.071875 -3.9175 12.14375 -3.875 11.1875 C-3.72863661 7.84190281 -3.72863661 7.84190281 -6 5 C-4.35 5 -2.7 5 -1 5 C-0.67 3.35 -0.34 1.7 0 0 Z " fill="#E3BB10" transform="translate(189,119)"/>
<path d="M0 0 C0.66 0 1.32 0 2 0 C2.33 1.65 2.66 3.3 3 5 C4.65 5 6.3 5 8 5 C7.505 5.391875 7.01 5.78375 6.5 6.1875 C4.54406857 8.55091715 4.75792027 10.01435003 5 13 C4.236875 12.814375 3.47375 12.62875 2.6875 12.4375 C-0.08967375 11.77180827 -0.08967375 11.77180827 -3 13 C-3.185625 11.576875 -3.185625 11.576875 -3.375 10.125 C-3.71687177 6.91332809 -3.71687177 6.91332809 -6 5 C-4.35 4.67 -2.7 4.34 -1 4 C-0.67 2.68 -0.34 1.36 0 0 Z " fill="#E4BC0F" transform="translate(95,94)"/>
<path d="M0 0 C0.66 0 1.32 0 2 0 C2.33 1.32 2.66 2.64 3 4 C4.65 4.33 6.3 4.66 8 5 C7.2884375 5.86625 7.2884375 5.86625 6.5625 6.75 C5.0515133 8.92582084 4.45963849 10.42602448 4 13 C3.401875 12.814375 2.80375 12.62875 2.1875 12.4375 C-0.16408762 11.77906313 -0.16408762 11.77906313 -3 13 C-2.938125 12.236875 -2.87625 11.47375 -2.8125 10.6875 C-2.74101915 7.95474688 -2.74101915 7.95474688 -4.5 6.1875 C-4.995 5.795625 -5.49 5.40375 -6 5 C-4.02 5 -2.04 5 0 5 C0 3.35 0 1.7 0 0 Z " fill="#E9BE0C" transform="translate(145,144)"/>
<path d="M0 0 C0.66 0 1.32 0 2 0 C2.33 1.32 2.66 2.64 3 4 C4.32 4.33 5.64 4.66 7 5 C6.649375 5.5775 6.29875 6.155 5.9375 6.75 C4.85082593 9.35801776 5.06934867 10.39417629 6 13 C5.071875 12.649375 4.14375 12.29875 3.1875 11.9375 C0.0197047 10.67617372 0.0197047 10.67617372 -3 12 C-3.66 9.36 -4.32 6.72 -5 4 C-3.68 3.67 -2.36 3.34 -1 3 C-0.67 2.01 -0.34 1.02 0 0 Z " fill="#E6BD0E" transform="translate(195,95)"/>
<path d="M0 0 C2 2 2 2 2 5 C3.65 5 5.3 5 7 5 C6.34 5.66 5.68 6.32 5 7 C4.83318891 10.08347826 4.83318891 10.08347826 5 13 C3.6078125 12.7215625 3.6078125 12.7215625 2.1875 12.4375 C-1.01343771 11.75876119 -1.01343771 11.75876119 -4 13 C-3.95875 12.236875 -3.9175 11.47375 -3.875 10.6875 C-3.77919176 7.77281584 -3.77919176 7.77281584 -6 5 C-4.35 5 -2.7 5 -1 5 C-0.67 3.35 -0.34 1.7 0 0 Z " fill="#E7BD0E" transform="translate(189,69)"/>
<path d="M0 0 C-0.3125 3.375 -0.3125 3.375 -1 7 C-4 9 -4 9 -6.6875 8.625 C-7.450625 8.41875 -8.21375 8.2125 -9 8 C-9.33 6.35 -9.66 4.7 -10 3 C-8.70990357 2.49596232 -7.41786211 1.99690074 -6.125 1.5 C-5.04605469 1.08234375 -5.04605469 1.08234375 -3.9453125 0.65625 C-2 0 -2 0 0 0 Z " fill="#E1E7F3" transform="translate(583,132)"/>
<path d="M0 0 C2.64 0 5.28 0 8 0 C8 2.31 8 4.62 8 7 C5.36 7 2.72 7 0 7 C0 4.69 0 2.38 0 0 Z " fill="#2853A9" transform="translate(713,107)"/>
<path d="M0 0 C3.125 0.3125 3.125 0.3125 5 2.1875 C6.125 4.3125 6.125 4.3125 6.125 6.3125 C2.495 6.3125 -1.135 6.3125 -4.875 6.3125 C-3.69277778 0.40138889 -3.69277778 0.40138889 0 0 Z " fill="#F1F4F9" transform="translate(548.875,122.6875)"/>
<path d="M0 0 C3.0625 0.1875 3.0625 0.1875 5.0625 2.1875 C5.0625 3.5075 5.0625 4.8275 5.0625 6.1875 C1.7625 6.1875 -1.5375 6.1875 -4.9375 6.1875 C-3.87127483 0.24710265 -3.87127483 0.24710265 0 0 Z " fill="#F2F4F9" transform="translate(353.9375,122.8125)"/>
<path d="M0 0 C2.5625 0.3125 2.5625 0.3125 4.375 1.625 C5.5625 3.3125 5.5625 3.3125 5.5625 6.3125 C1.9325 6.3125 -1.6975 6.3125 -5.4375 6.3125 C-3.98716887 0.5111755 -3.98716887 0.5111755 0 0 Z " fill="#EEF2F8" transform="translate(432.4375,59.6875)"/>
</svg>
